# Alias OBJ Model File
# Exported from SketchUp, (c) 2000-2012 Trimble Navigation Limited
# File units = meters

mtllib bar_04.mtl

g Mesh1 Model

usemtl FrontColor
v 2.5 0.58 -0.875
vt 98.4252 34.4488
vn 0 1 -0
v 2.46 0.58 -0.915
vt 96.8504 36.0236
v 2.46 0.58 -0.875
vt 96.8504 34.4488
f 1/1/1 2/2/1 3/3/1

v 2.5 0.58 -0.915
vt 98.4252 36.0236
f 2/2/1 1/1/1 4/4/1

vt -98.4252 36.0236
vn 0 -1 -0
v 2.75 0.58 -0.945
vt -108.268 37.2047
vt -98.4252 34.4488
f 4/5/2 5/6/2 1/7/2

vt -96.8504 36.0236
f 2/8/2 5/6/2 4/5/2

v 2.43 0.58 -0.915
vt -95.6693 36.0236
f 6/9/2 5/6/2 2/8/2

v 2.43 0.58 -0.945
vt -95.6693 37.2047
f 5/6/2 6/9/2 7/10/2

vt -36.0236 22.8346
vn -1 0 -0
v 2.43 0.64 -0.945
vt -37.2047 25.1969
vt -37.2047 22.8346
f 6/11/3 8/12/3 7/13/3

v 2.43 0.58 -0.875
vt -34.4488 22.8346
f 9/14/3 8/12/3 6/11/3

v 2.43 0.58 -0.555
vt -21.8504 22.8346
f 10/15/3 8/12/3 9/14/3

v 2.43 0.64 -0.555
vt -21.8504 25.1969
f 8/12/3 10/15/3 11/16/3

vt 95.6693 22.8346
vn 3.62409e-33 1.00265e-15 1
v 2.82 0.64 -0.555
vt 111.024 25.1969
vt 95.6693 25.1969
f 10/17/4 12/18/4 11/19/4

v 2.46 0.58 -0.555
vt 96.8504 22.8346
f 13/20/4 12/18/4 10/17/4

v 2.5 0.58 -0.555
vt 98.4252 22.8346
f 14/21/4 12/18/4 13/20/4

v 2.75 0.58 -0.555
vt 108.268 22.8346
f 15/22/4 12/18/4 14/21/4

v 2.79 0.58 -0.555
vt 109.843 22.8346
f 16/23/4 12/18/4 15/22/4

v 2.82 0.58 -0.555
vt 111.024 22.8346
f 12/18/4 16/23/4 17/24/4

vt -109.843 21.8504
v 2.82 0.58 -0.875
vt -111.024 34.4488
vt -111.024 21.8504
f 16/25/2 18/26/2 17/27/2

v 2.79 0.58 -0.585
vt -109.843 23.0315
f 19/28/2 18/26/2 16/25/2

v 2.79 0.58 -0.625
vt -109.843 24.6063
f 20/29/2 18/26/2 19/28/2

v 2.79 0.58 -0.875
vt -109.843 34.4488
f 20/29/2 21/30/2 18/26/2

v 2.75 0.58 -0.625
vt -108.268 24.6063
f 22/31/2 21/30/2 20/29/2

v 2.75 0.58 -0.875
vt -108.268 34.4488
f 21/30/2 22/31/2 23/32/2

vt -108.268 21.8504
f 15/33/2 23/32/2 22/31/2

v 2.75 0.58 -0.915
vt -108.268 36.0236
f 15/33/2 24/34/2 23/32/2

f 15/33/2 5/6/2 24/34/2

v 2.5 0.58 -0.625
vt -98.4252 24.6063
f 15/33/2 25/35/2 5/6/2

vt -98.4252 21.8504
f 14/36/2 25/35/2 15/33/2

v 2.5 0.58 -0.585
vt -98.4252 23.0315
f 25/35/2 14/36/2 26/37/2

vt -96.8504 21.8504
vn 0 -1 1.00265e-15
f 13/38/5 26/37/5 14/36/5

v 2.46 0.58 -0.585
vt -96.8504 23.0315
f 26/37/5 13/38/5 27/39/5

v 2.46 0.58 -0.625
vt -96.8504 24.6063
f 13/38/2 28/40/2 27/39/2

vt -96.8504 34.4488
f 13/38/2 3/41/2 28/40/2

vt -95.6693 21.8504
f 10/42/2 3/41/2 13/38/2

vt -95.6693 34.4488
f 3/41/2 10/42/2 9/43/2

f 9/43/2 2/8/2 3/41/2

f 2/8/2 9/43/2 6/9/2

f 1/7/2 28/40/2 3/41/2

f 28/40/2 1/7/2 25/35/2

f 1/7/2 5/6/2 25/35/2

f 25/35/2 27/39/2 28/40/2

f 27/39/2 25/35/2 26/37/2

v 2.82 0.58 -0.945
vt -111.024 37.2047
f 29/44/2 24/34/2 5/6/2

v 2.79 0.58 -0.915
vt -109.843 36.0236
f 24/34/2 29/44/2 30/45/2

v 2.82 0.58 -0.915
vt -111.024 36.0236
f 30/45/2 29/44/2 31/46/2

v 2.82 0.64 -0.945
vt 37.2047 25.1969
vn 1 0 -0
vt 36.0236 22.8346
vt 37.2047 22.8346
f 32/47/6 31/48/6 29/49/6

vt 34.4488 22.8346
f 32/47/6 18/50/6 31/48/6

vt 21.8504 25.1969
f 12/51/6 18/50/6 32/47/6

vt 21.8504 22.8346
f 18/50/6 12/51/6 17/52/6

vt 95.6693 37.2047
vt 111.024 21.8504
vt 111.024 37.2047
f 8/53/1 12/54/1 32/55/1

vt 95.6693 21.8504
f 12/54/1 8/53/1 11/56/1

vt -111.024 22.8346
vn 0 0 -1
vt -95.6693 25.1969
vt -111.024 25.1969
f 29/57/7 8/58/7 32/59/7

vt -108.268 22.8346
f 5/60/7 8/58/7 29/57/7

vt -95.6693 22.8346
f 8/58/7 5/60/7 7/61/7

f 21/30/2 31/46/2 18/26/2

f 31/46/2 21/30/2 30/45/2

f 23/32/2 30/45/2 21/30/2

f 30/45/2 23/32/2 24/34/2

v 2.75 0.58 -0.585
vt -108.268 23.0315
f 15/33/2 22/31/2 33/62/2

f 20/29/2 33/62/2 22/31/2

f 33/62/2 20/29/2 19/28/2

f 19/28/5 15/33/5 33/62/5

f 15/33/5 19/28/5 16/25/5

g Mesh2 Model

v 3.08897 0.58 -0.899754
vt -121.613 35.4234
vn -4.81326e-15 -1 -0
v 3.05897 0.58 -0.859754
vt -120.432 33.8486
v 3.05897 0.58 -0.899754
vt -120.432 35.4234
f 34/63/8 35/64/8 36/65/8

v 3.08897 0.58 -0.859754
vt -121.613 33.8486
f 35/64/8 34/63/8 37/66/8

v 3.12897 0.58 -0.859754
vt 123.188 33.8486
vt 121.613 35.4234
vt 121.613 33.8486
f 38/67/1 34/68/1 37/69/1

v 3.12897 0.58 -0.899754
vt 123.188 35.4234
f 34/68/1 38/67/1 39/70/1

vt -123.188 35.4234
vn -1.23152e-16 -1 -8.92931e-17
v 3.37897 0.58 -0.929754
vt -133.03 36.6045
vt -123.188 33.8486
f 39/71/9 40/72/9 38/73/9

f 34/63/9 40/72/9 39/71/9

v 3.05897 0.58 -0.929754
vt -120.432 36.6045
f 34/63/9 41/74/9 40/72/9

f 41/74/9 34/63/9 36/65/9

vt -35.4234 22.8346
vn -1 4.81326e-15 -3.28711e-16
v 3.05897 0.64 -0.929754
vt -36.6045 25.1969
vt -36.6045 22.8346
f 36/75/10 42/76/10 41/77/10

vt -33.8486 22.8346
f 35/78/10 42/76/10 36/75/10

v 3.05897 0.58 -0.539754
vt -21.2502 22.8346
f 43/79/10 42/76/10 35/78/10

v 3.05897 0.64 -0.539754
vt -21.2502 25.1969
f 42/76/10 43/79/10 44/80/10

vt 120.432 22.8346
vn -1.48388e-33 -4.01062e-15 1
v 3.44897 0.64 -0.539754
vt 135.786 25.1969
vt 120.432 25.1969
f 43/81/11 45/82/11 44/83/11

v 3.44897 0.58 -0.539754
vt 135.786 22.8346
f 43/81/11 46/84/11 45/82/11

v 3.08897 0.58 -0.539754
vt 121.613 22.8346
f 47/85/11 46/84/11 43/81/11

v 3.12897 0.58 -0.539754
vt 123.188 22.8346
f 48/86/11 46/84/11 47/85/11

v 3.37897 0.58 -0.539754
vt 133.03 22.8346
f 49/87/11 46/84/11 48/86/11

v 3.41897 0.58 -0.539754
vt 134.605 22.8346
f 46/84/11 49/87/11 50/88/11

vt -133.03 21.2502
vn 0 -1 -4.01062e-15
v 3.41897 0.58 -0.569754
vt -134.605 22.4313
vt -134.605 21.2502
f 49/89/12 51/90/12 50/91/12

v 3.37897 0.58 -0.569754
vt -133.03 22.4313
f 51/90/12 49/89/12 52/92/12

v 3.37897 0.58 -0.609754
vt -133.03 24.0061
f 49/89/9 53/93/9 52/92/9

v 3.37897 0.58 -0.859754
vt -133.03 33.8486
f 49/89/9 54/94/9 53/93/9

v 3.37897 0.58 -0.899754
vt -133.03 35.4234
f 49/89/9 55/95/9 54/94/9

f 49/89/9 40/72/9 55/95/9

vt -123.188 21.2502
f 48/96/9 40/72/9 49/89/9

v 3.12897 0.58 -0.569754
vt -123.188 22.4313
f 56/97/9 40/72/9 48/96/9

v 3.12897 0.58 -0.609754
vt -123.188 24.0061
f 57/98/9 40/72/9 56/97/9

f 38/73/9 40/72/9 57/98/9

v 3.08897 0.58 -0.609754
vt -121.613 24.0061
f 58/99/9 38/73/9 57/98/9

f 38/73/9 58/99/9 37/66/9

vt -121.613 21.2502
f 47/100/9 37/66/9 58/99/9

vt -120.432 21.2502
f 43/101/9 37/66/9 47/100/9

f 37/66/9 43/101/9 35/64/9

v 3.08897 0.58 -0.569754
vt -121.613 22.4313
f 47/100/9 58/99/9 59/102/9

f 57/98/2 59/102/2 58/99/2

f 59/102/2 57/98/2 56/97/2

f 56/97/12 47/100/12 59/102/12

f 47/100/12 56/97/12 48/96/12

v 3.41897 0.58 -0.929754
vt -134.605 36.6045
f 60/103/2 55/95/2 40/72/2

v 3.41897 0.58 -0.899754
vt -134.605 35.4234
f 55/95/2 60/103/2 61/104/2

v 3.44897 0.58 -0.929754
vt -135.786 36.6045
vn 1.20319e-14 -1 -0
f 62/105/13 61/104/13 60/103/13

v 3.41897 0.58 -0.859754
vt -134.605 33.8486
f 61/104/13 62/105/13 63/106/13

v 3.44897 0.58 -0.859754
vt -135.786 33.8486
f 63/106/13 62/105/13 64/107/13

v 3.44897 0.64 -0.929754
vt 36.6045 25.1969
vn 1 1.20319e-14 5.31922e-32
vt 33.8486 22.8346
vt 36.6045 22.8346
f 65/108/14 64/109/14 62/110/14

vt 21.2502 25.1969
f 45/111/14 64/109/14 65/108/14

vt 21.2502 22.8346
f 64/109/14 45/111/14 46/112/14

vt -135.786 21.2502
f 50/91/9 64/107/9 46/113/9

f 51/90/9 64/107/9 50/91/9

v 3.41897 0.58 -0.609754
vt -134.605 24.0061
f 66/114/9 64/107/9 51/90/9

f 66/114/9 63/106/9 64/107/9

f 53/93/9 63/106/9 66/114/9

f 63/106/9 53/93/9 54/94/9

f 54/94/2 61/104/2 63/106/2

f 61/104/2 54/94/2 55/95/2

f 66/114/2 52/92/2 53/93/2

f 52/92/2 66/114/2 51/90/2

vt 120.432 36.6045
vt 135.786 21.2502
vt 135.786 36.6045
f 42/115/1 45/116/1 65/117/1

vt 120.432 21.2502
f 45/116/1 42/115/1 44/118/1

vt -135.786 22.8346
vt -120.432 25.1969
vt -135.786 25.1969
f 62/119/7 42/120/7 65/121/7

vt -120.432 22.8346
f 62/119/7 41/122/7 42/120/7

vt -134.605 22.8346
f 60/123/7 41/122/7 62/119/7

vt -133.03 22.8346
f 41/122/7 60/123/7 40/124/7

g Mesh3 Model

v 0.774225 0.58 -0.955
vt -30.4813 37.5984
v 0.734225 0.58 -0.915
vt -28.9065 36.0236
v 0.734225 0.58 -0.955
vt -28.9065 37.5984
f 67/125/2 68/126/2 69/127/2

v 0.774225 0.58 -0.915
vt -30.4813 36.0236
f 68/126/2 67/125/2 70/128/2

vn 1.50398e-15 -1 -0
v 0.804225 0.58 -0.985
vt -31.6624 38.7795
f 67/125/15 71/129/15 70/128/15

v 0.774225 0.58 -0.985
vt -30.4813 38.7795
f 71/129/15 67/125/15 72/130/15

vn 0 -1 6.01593e-15
f 69/127/16 72/130/16 67/125/16

v 0.734225 0.58 -0.985
vt -28.9065 38.7795
f 72/130/16 69/127/16 73/131/16

v 0.734225 0.58 -0.595
vt -28.9065 23.4252
f 74/132/2 73/131/2 69/127/2

v 0.484225 0.58 -0.665
vt -19.064 26.1811
f 74/132/2 75/133/2 73/131/2

v 0.484225 0.58 -0.595
vt -19.064 23.4252
f 76/134/2 75/133/2 74/132/2

v 0.484225 0.58 -0.625
vt -19.064 24.6063
f 75/133/2 76/134/2 77/135/2

vn 0 -1 1.50398e-15
v 0.444225 0.58 -0.625
vt -17.4892 24.6063
f 76/134/17 78/136/17 77/135/17

v 0.414225 0.58 -0.595
vt -16.3081 23.4252
f 79/137/17 78/136/17 76/134/17

v 0.414225 0.58 -0.625
vt -16.3081 24.6063
f 78/136/17 79/137/17 80/138/17

v 0.414225 0.64 -0.595
vt -23.4252 25.1969
vt -24.6063 22.8346
vt -23.4252 22.8346
f 81/139/3 80/140/3 79/141/3

v 0.414225 0.64 -0.985
vt -38.7795 25.1969
f 80/140/3 81/139/3 82/142/3

v 0.804225 0.64 -0.595
vt 31.6624 23.4252
vt 16.3081 38.7795
vt 16.3081 23.4252
f 83/143/1 82/144/1 81/145/1

v 0.804225 0.64 -0.985
vt 31.6624 38.7795
f 82/144/1 83/143/1 84/146/1

vt 23.4252 25.1969
vn 1 1.50398e-15 4.01876e-33
v 0.804225 0.58 -0.625
vt 24.6063 22.8346
vt 38.7795 25.1969
f 83/147/18 85/148/18 84/149/18

v 0.804225 0.58 -0.595
vt 23.4252 22.8346
f 85/148/18 83/147/18 86/150/18

vt 31.6624 25.1969
vn -1.83991e-33 1.50398e-15 1
vt 28.9065 22.8346
vt 31.6624 22.8346
f 83/151/19 74/152/19 86/153/19

vt 19.064 22.8346
f 74/152/19 83/151/19 76/154/19

vt 16.3081 22.8346
f 76/154/19 83/151/19 79/155/19

vt 16.3081 25.1969
f 79/155/19 83/151/19 81/156/19

v 0.774225 0.58 -0.625
vt -30.4813 24.6063
vt -31.6624 23.4252
f 74/132/17 87/157/17 86/158/17

v 0.734225 0.58 -0.625
vt -28.9065 24.6063
f 87/157/17 74/132/17 88/159/17

v 0.734225 0.58 -0.665
vt -28.9065 26.1811
f 74/132/2 89/160/2 88/159/2

f 74/132/2 68/126/2 89/160/2

f 74/132/2 69/127/2 68/126/2

f 70/128/2 89/160/2 68/126/2

v 0.774225 0.58 -0.665
vt -30.4813 26.1811
f 89/160/2 70/128/2 90/161/2

v 0.804225 0.58 -0.915
vt -31.6624 36.0236
f 90/161/2 70/128/2 91/162/2

f 70/128/15 71/129/15 91/162/15

vt 38.7795 22.8346
f 84/149/18 91/48/18 71/163/18

v 0.804225 0.58 -0.665
vt 26.1811 22.8346
f 84/149/18 92/164/18 91/48/18

f 84/149/18 85/148/18 92/164/18

vt -31.6624 26.1811
vt -31.6624 24.6063
f 87/157/15 92/165/15 85/166/15

f 92/165/15 87/157/15 90/161/15

f 88/159/2 90/161/2 87/157/2

f 90/161/2 88/159/2 89/160/2

f 90/161/2 91/162/2 92/165/2

f 86/158/17 87/157/17 85/166/17

vt -31.6624 22.8346
vn -5.17112e-32 -6.01593e-15 -1
vt -16.3081 25.1969
vt -31.6624 25.1969
f 71/167/20 82/168/20 84/169/20

vt -30.4813 22.8346
f 72/170/20 82/168/20 71/167/20

vt -28.9065 22.8346
f 73/171/20 82/168/20 72/170/20

v 0.484225 0.58 -0.985
vt -19.064 22.8346
f 93/172/20 82/168/20 73/171/20

v 0.414225 0.58 -0.985
vt -16.3081 22.8346
f 82/168/20 93/172/20 94/173/20

vt -19.064 38.7795
v 0.414225 0.58 -0.955
vt -16.3081 37.5984
vt -16.3081 38.7795
f 93/174/16 95/175/16 94/176/16

v 0.444225 0.58 -0.955
vt -17.4892 37.5984
f 95/175/16 93/174/16 96/177/16

v 0.484225 0.58 -0.955
vt -19.064 37.5984
f 96/177/16 93/174/16 97/178/16

f 73/131/2 97/178/2 93/174/2

v 0.484225 0.58 -0.915
vt -19.064 36.0236
f 97/178/2 73/131/2 98/179/2

f 98/179/2 73/131/2 75/133/2

v 0.444225 0.58 -0.665
vt -17.4892 26.1811
f 99/180/2 98/179/2 75/133/2

v 0.444225 0.58 -0.915
vt -17.4892 36.0236
f 99/180/2 100/181/2 98/179/2

v 0.414225 0.58 -0.665
vt -16.3081 26.1811
f 101/182/2 100/181/2 99/180/2

v 0.414225 0.58 -0.915
vt -16.3081 36.0236
f 100/181/2 101/182/2 102/183/2

vt -26.1811 22.8346
f 101/184/3 82/142/3 102/11/3

f 80/140/3 82/142/3 101/184/3

f 99/180/2 80/138/2 101/182/2

f 80/138/2 99/180/2 78/136/2

f 75/133/2 78/136/2 99/180/2

f 78/136/2 75/133/2 77/135/2

vt -37.5984 22.8346
f 102/11/3 82/142/3 95/185/3

vt -38.7795 22.8346
f 95/185/3 82/142/3 94/186/3

f 96/177/2 102/183/2 95/175/2

f 102/183/2 96/177/2 100/181/2

f 97/178/2 100/181/2 96/177/2

f 100/181/2 97/178/2 98/179/2

g Mesh4 Model

v 1.15514 0.58 -0.915
vt 45.4781 36.0236
v 1.11514 0.58 -0.955
vt 43.9033 37.5984
v 1.11514 0.58 -0.915
vt 43.9033 36.0236
f 103/187/1 104/188/1 105/189/1

v 1.15514 0.58 -0.955
vt 45.4781 37.5984
f 104/188/1 103/187/1 106/190/1

vt -45.4781 37.5984
vn 8.76644e-18 -1 1.97003e-16
v 1.47514 0.58 -0.985
vt -58.0766 38.7795
vt -45.4781 36.0236
f 106/191/21 107/192/21 103/193/21

v 1.15514 0.58 -0.985
vt -45.4781 38.7795
f 107/192/21 106/191/21 108/194/21

vt -43.9033 37.5984
f 104/195/16 108/194/16 106/191/16

v 1.11514 0.58 -0.985
vt -43.9033 38.7795
f 108/194/16 104/195/16 109/196/16

vt -43.9033 36.0236
vn 3.00796e-15 -1 -0
f 105/197/22 109/196/22 104/195/22

v 1.08514 0.58 -0.915
vt -42.7222 36.0236
f 110/198/22 109/196/22 105/197/22

v 1.08514 0.58 -0.985
vt -42.7222 38.7795
f 109/196/22 110/198/22 111/199/22

vn -1 -3.00796e-15 1.3298e-32
v 1.08514 0.64 -0.985
f 110/11/23 112/142/23 111/186/23

v 1.08514 0.58 -0.595
f 113/141/23 112/142/23 110/11/23

v 1.08514 0.64 -0.595
f 112/142/23 113/141/23 114/139/23

vt 42.7222 22.8346
vn 0 0 1
v 1.47514 0.64 -0.595
vt 58.0766 25.1969
vt 42.7222 25.1969
f 113/200/24 115/201/24 114/202/24

v 1.11514 0.58 -0.595
vt 43.9033 22.8346
f 116/203/24 115/201/24 113/200/24

v 1.15514 0.58 -0.595
vt 45.4781 22.8346
f 117/204/24 115/201/24 116/203/24

v 1.40514 0.58 -0.595
vt 55.3207 22.8346
f 118/205/24 115/201/24 117/204/24

v 1.44514 0.58 -0.595
vt 56.8955 22.8346
f 119/206/24 115/201/24 118/205/24

v 1.47514 0.58 -0.595
vt 58.0766 22.8346
f 115/201/24 119/206/24 120/207/24

vt -56.8955 23.4252
v 1.47514 0.58 -0.915
vt -58.0766 36.0236
vt -58.0766 23.4252
f 119/208/21 121/209/21 120/210/21

v 1.44514 0.58 -0.625
vt -56.8955 24.6063
f 122/211/21 121/209/21 119/208/21

v 1.44514 0.58 -0.665
vt -56.8955 26.1811
f 123/212/21 121/209/21 122/211/21

v 1.44514 0.58 -0.915
vt -56.8955 36.0236
f 123/212/21 124/213/21 121/209/21

v 1.40514 0.58 -0.665
vt -55.3207 26.1811
f 125/214/21 124/213/21 123/212/21

v 1.40514 0.58 -0.915
vt -55.3207 36.0236
f 124/213/21 125/214/21 126/215/21

vt -55.3207 23.4252
f 118/216/21 126/215/21 125/214/21

v 1.40514 0.58 -0.955
vt -55.3207 37.5984
f 118/216/21 127/217/21 126/215/21

v 1.15514 0.58 -0.665
vt -45.4781 26.1811
f 118/216/21 128/218/21 127/217/21

vt -45.4781 23.4252
f 117/219/21 128/218/21 118/216/21

v 1.15514 0.58 -0.625
vt -45.4781 24.6063
f 128/218/21 117/219/21 129/220/21

vt -43.9033 23.4252
f 116/221/2 129/220/2 117/219/2

v 1.11514 0.58 -0.625
vt -43.9033 24.6063
f 129/220/2 116/221/2 130/222/2

v 1.11514 0.58 -0.665
vt -43.9033 26.1811
f 116/221/21 131/223/21 130/222/21

f 116/221/21 105/197/21 131/223/21

vt -42.7222 23.4252
f 113/224/21 105/197/21 116/221/21

f 105/197/21 113/224/21 110/198/21

f 103/193/21 131/223/21 105/197/21

f 131/223/21 103/193/21 128/218/21

f 103/193/21 127/217/21 128/218/21

f 103/193/21 107/192/21 127/217/21

v 1.44514 0.58 -0.955
vt -56.8955 37.5984
f 127/217/21 107/192/21 132/225/21

v 1.47514 0.58 -0.955
vt -58.0766 37.5984
f 132/225/21 107/192/21 133/226/21

v 1.47514 0.64 -0.985
vt 37.5984 22.8346
f 134/149/6 133/227/6 107/163/6

f 134/149/6 121/48/6 133/227/6

f 115/147/6 121/48/6 134/149/6

f 121/48/6 115/147/6 120/150/6

vt 42.7222 38.7795
vt 58.0766 23.4252
vt 58.0766 38.7795
f 112/228/1 115/229/1 134/230/1

vt 42.7222 23.4252
f 115/229/1 112/228/1 114/231/1

vt -58.0766 22.8346
vn -5.31922e-32 -6.01593e-15 -1
vt -42.7222 25.1969
vt -58.0766 25.1969
f 107/232/25 112/233/25 134/234/25

vt -45.4781 22.8346
f 108/235/25 112/233/25 107/232/25

vt -43.9033 22.8346
f 109/236/25 112/233/25 108/235/25

vt -42.7222 22.8346
f 112/233/25 109/236/25 111/237/25

f 124/213/2 133/226/2 121/209/2

f 133/226/2 124/213/2 132/225/2

f 126/215/2 132/225/2 124/213/2

f 132/225/2 126/215/2 127/217/2

f 128/218/2 130/222/2 131/223/2

f 130/222/2 128/218/2 129/220/2

v 1.40514 0.58 -0.625
vt -55.3207 24.6063
f 118/216/21 125/214/21 135/238/21

f 123/212/2 135/238/2 125/214/2

f 135/238/2 123/212/2 122/211/2

f 122/211/2 118/216/2 135/238/2

f 118/216/2 122/211/2 119/208/2

g Mesh5 Model

v 2.09641 0.58 -0.909579
vt -82.5357 35.8102
v 2.05641 0.58 -0.869579
vt -80.9609 34.2354
v 2.05641 0.58 -0.909579
vt -80.9609 35.8102
f 136/239/2 137/240/2 138/241/2

v 2.09641 0.58 -0.869579
vt -82.5357 34.2354
f 137/240/2 136/239/2 139/242/2

v 2.12641 0.58 -0.909579
vt -83.7168 35.8102
vn 6.01593e-15 -1 -0
f 140/243/26 139/242/26 136/239/26

v 2.12641 0.58 -0.869579
vt -83.7168 34.2354
f 139/242/26 140/243/26 141/244/26

v 2.12641 0.64 -0.939579
vt 36.9913 25.1969
vn 1 6.01593e-15 -5.31922e-32
vt 34.2354 22.8346
vt 35.8102 22.8346
f 142/245/27 141/246/27 140/247/27

v 2.12641 0.64 -0.549579
vt 21.637 25.1969
f 143/248/27 141/246/27 142/245/27

v 2.12641 0.58 -0.549579
vt 21.637 22.8346
f 141/246/27 143/248/27 144/249/27

v 1.73641 0.58 -0.549579
vt 68.3625 22.8346
vt 83.7168 22.8346
vt 83.7168 25.1969
f 145/250/24 144/251/24 143/252/24

v 1.76641 0.58 -0.549579
vt 69.5436 22.8346
f 146/253/24 144/251/24 145/250/24

v 1.80641 0.58 -0.549579
vt 71.1184 22.8346
f 147/254/24 144/251/24 146/253/24

v 2.05641 0.58 -0.549579
vt 80.9609 22.8346
f 148/255/24 144/251/24 147/254/24

v 2.09641 0.58 -0.549579
vt 82.5357 22.8346
f 144/251/24 148/255/24 149/256/24

vt -80.9609 21.637
v 2.09641 0.58 -0.579579
vt -82.5357 22.8181
vt -82.5357 21.637
f 148/257/2 150/258/2 149/259/2

v 2.05641 0.58 -0.579579
vt -80.9609 22.8181
f 150/258/2 148/257/2 151/260/2

vn -1.31918e-16 -1 1.0771e-16
v 2.05641 0.58 -0.619579
vt -80.9609 24.3929
f 148/257/28 152/261/28 151/260/28

f 148/257/28 137/240/28 152/261/28

f 148/257/28 138/241/28 137/240/28

v 2.05641 0.58 -0.939579
vt -80.9609 36.9913
f 148/257/28 153/262/28 138/241/28

v 1.80641 0.58 -0.619579
vt -71.1184 24.3929
f 148/257/28 154/263/28 153/262/28

vt -71.1184 21.637
f 147/264/28 154/263/28 148/257/28

v 1.80641 0.58 -0.579579
vt -71.1184 22.8181
f 154/263/28 147/264/28 155/265/28

vt -69.5436 21.637
f 146/266/2 155/265/2 147/264/2

v 1.76641 0.58 -0.579579
vt -69.5436 22.8181
f 155/265/2 146/266/2 156/267/2

v 1.76641 0.58 -0.619579
vt -69.5436 24.3929
f 146/266/28 157/268/28 156/267/28

v 1.76641 0.58 -0.869579
vt -69.5436 34.2354
f 146/266/28 158/269/28 157/268/28

vt -68.3625 21.637
f 145/270/28 158/269/28 146/266/28

v 1.73641 0.58 -0.869579
vt -68.3625 34.2354
f 158/269/28 145/270/28 159/271/28

vt -21.637 22.8346
v 1.73641 0.64 -0.939579
vt -36.9913 25.1969
vt -34.2354 22.8346
f 145/272/10 160/273/10 159/274/10

v 1.73641 0.64 -0.549579
vt -21.637 25.1969
f 160/273/10 145/272/10 161/275/10

vt 68.3625 25.1969
f 145/250/24 143/252/24 161/276/24

vt 83.7168 21.637
vt 68.3625 36.9913
vt 68.3625 21.637
f 143/277/1 160/278/1 161/279/1

vt 83.7168 36.9913
f 160/278/1 143/277/1 142/280/1

v 2.12641 0.58 -0.939579
vt -83.7168 22.8346
vt -68.3625 25.1969
vt -83.7168 25.1969
f 162/281/25 160/282/25 142/283/25

v 1.73641 0.58 -0.939579
vt -68.3625 22.8346
f 162/281/25 163/284/25 160/282/25

vt -80.9609 22.8346
f 163/284/25 162/281/25 153/285/25

vt -83.7168 36.9913
f 162/286/16 138/241/16 153/262/16

f 138/241/16 162/286/16 136/239/16

f 136/239/16 162/286/16 140/243/16

vt 36.9913 22.8346
f 142/245/27 140/247/27 162/287/27

v 1.76641 0.58 -0.909579
vt -69.5436 35.8102
vt -68.3625 36.9913
f 164/288/28 163/289/28 153/262/28

v 1.73641 0.58 -0.909579
vt -68.3625 35.8102
f 163/289/28 164/288/28 165/290/28

f 164/288/8 159/271/8 165/290/8

f 159/271/8 164/288/8 158/269/8

v 1.80641 0.58 -0.869579
vt 71.1184 34.2354
vt 69.5436 35.8102
vt 69.5436 34.2354
f 166/291/1 164/292/1 158/293/1

v 1.80641 0.58 -0.909579
vt 71.1184 35.8102
f 164/292/1 166/291/1 167/294/1

vt -71.1184 35.8102
vt -71.1184 34.2354
f 167/295/28 153/262/28 166/296/28

f 164/288/28 153/262/28 167/295/28

f 166/296/28 153/262/28 154/263/28

f 157/268/28 166/296/28 154/263/28

f 166/296/28 157/268/28 158/269/28

f 154/263/2 156/267/2 157/268/2

f 156/267/2 154/263/2 155/265/2

vt -35.8102 22.8346
f 159/274/10 160/273/10 165/297/10

vt -36.9913 22.8346
f 165/297/10 160/273/10 163/298/10

f 139/242/28 152/261/28 137/240/28

v 2.09641 0.58 -0.619579
vt -82.5357 24.3929
f 152/261/28 139/242/28 168/299/28

f 168/299/28 139/242/28 141/244/28

f 168/299/28 141/244/28 150/258/28

f 150/258/28 141/244/28 149/259/28

vt -83.7168 21.637
f 149/259/28 141/244/28 144/300/28

f 151/260/2 168/299/2 150/258/2

f 168/299/2 151/260/2 152/261/2

