# Alias OBJ Model File
# Exported from SketchUp, (c) 2000-2012 Trimble Navigation Limited
# File units = meters

mtllib shard_01.mtl

g Mesh1 Model

usemtl FrontColor
v -0.133889 1.0397 0.0519491
vt -5.27121 -2.04524
vn 0 1 -0
v -0.134026 1.0397 0.0515812
vt -5.27661 -2.03075
v -0.13417 1.0397 0.0520213
vt -5.28229 -2.04808
f 1/1/1 2/2/1 3/3/1

vt -0.0729412 40.933
vn 0.936872 0 -0.349671
v -0.134026 1.0297 0.0515812
vt -0.0574775 40.5393
vt -0.0574775 40.933
f 1/4/2 4/5/2 2/6/2

v -0.133889 1.0297 0.0519491
vt -0.0729412 40.5393
f 4/5/2 1/4/2 5/7/2

vt -5.61404 40.933
vn 0.248418 0 0.968653
v -0.13417 1.0297 0.0520213
vt -5.62549 40.5393
vt -5.61404 40.5393
f 1/8/3 6/9/3 5/10/3

vt -5.62549 40.933
f 6/9/3 1/8/3 3/11/3

vt -5.65965 40.933
vn 0.318981 0 0.947761
v -0.134673 1.0297 0.0521905
vt -5.68052 40.5393
vt -5.65965 40.5393
f 3/12/4 7/13/4 6/14/4

v -0.134673 1.0397 0.0521905
vt -5.68052 40.933
f 7/13/4 3/12/4 8/15/4

v -0.131354 1.0397 -0.00232446
vt -5.1714 0.0915143
vt -5.30207 -2.05474
f 9/16/1 8/17/1 3/3/1

v -0.135332 1.0397 0.0529898
vt -5.32802 -2.08621
f 9/16/1 10/18/1 8/17/1

v -0.135748 1.0397 0.0528403
vt -5.34442 -2.08033
f 9/16/1 11/19/1 10/18/1

v -0.13805 1.0397 0.00153322
vt -5.43503 -0.060363
f 12/20/1 11/19/1 9/16/1

v -0.139393 1.0397 0.0515309
vt -5.48793 -2.02878
f 12/20/1 13/21/1 11/19/1

v -0.144562 1.0397 0.00288177
vt -5.69143 -0.113456
f 14/22/1 13/21/1 12/20/1

v -0.148784 1.0397 0.0389388
vt -5.85765 -1.53302
f 14/22/1 15/23/1 13/21/1

v -0.155587 1.0397 -0.00614318
vt -6.12549 0.241858
f 16/24/1 15/23/1 14/22/1

v -0.156995 1.0397 0.0251355
vt -6.1809 -0.989586
f 16/24/1 17/25/1 15/23/1

v -0.157781 1.0397 -0.00626099
vt -6.21187 0.246496
f 18/26/1 17/25/1 16/24/1

v -0.158038 1.0397 -0.00301657
vt -6.22196 0.118763
f 19/27/1 17/25/1 18/26/1

v -0.158293 1.0397 0.000207356
vt -6.232 -0.00816362
f 20/28/1 17/25/1 19/27/1

v -0.158798 1.0397 0.0065945
vt -6.25188 -0.259626
f 17/25/1 20/28/1 21/29/1

vt 0.49924 40.933
vn -0.99689 0 -0.0788032
v -0.158798 1.0297 0.0065945
vt 0.751487 40.5393
vn -0.999959 0 0.00901904
vt 0.751487 40.933
f 20/30/5 22/31/6 21/32/6

v -0.158293 1.0297 0.000207356
vt 0.49924 40.5393
f 22/31/6 20/30/5 23/33/5

vt 0.371918 40.933
f 19/34/5 23/33/5 20/30/5

v -0.158038 1.0297 -0.00301657
vt 0.371918 40.5393
f 23/33/5 19/34/5 24/35/5

vt 0.243786 40.933
vn -0.658733 0 -0.752377
f 18/36/7 24/35/5 19/34/5

v -0.157781 1.0297 -0.00626099
vt 0.243786 40.5393
f 24/35/5 18/36/7 25/37/7

vt 6.21615 40.933
v -0.155587 1.0297 -0.00614318
vt 6.12965 40.5393
vn 0.361435 0 -0.932397
vt 6.21615 40.5393
f 18/38/7 26/39/8 25/40/7

vt 6.12965 40.933
f 26/39/8 18/38/7 16/41/8

vt 4.89314 40.933
v -0.144562 1.0297 0.00288177
vt 4.3322 40.5393
vn 0.23857 0 -0.971125
vt 4.89314 40.5393
f 16/42/8 27/43/9 26/44/8

vt 4.3322 40.933
f 27/43/9 16/42/8 14/45/9

vt 5.59621 40.933
v -0.13805 1.0297 0.00153322
vt 5.33437 40.5393
vn -0.355479 0 -0.934684
vt 5.59621 40.5393
f 14/46/9 28/47/10 27/48/9

vt 5.33437 40.933
f 28/47/10 14/46/9 12/49/10

vt 4.73952 40.933
v -0.131354 1.0297 -0.00232446
vt 4.43528 40.5393
vn -0.723474 0 -0.690352
vt 4.73952 40.5393
f 12/50/10 29/51/11 28/52/10

vt 4.43528 40.933
f 29/51/11 12/50/10 9/53/11

v -0.122567 1.0397 -0.0193759
vt 1.53232 40.933
vn -0.866593 0 -0.499016
vt 2.28753 40.5393
vt 2.28753 40.933
f 30/54/12 29/55/11 9/56/11

v -0.122567 1.0297 -0.0193759
vt 1.53232 40.5393
f 29/55/11 30/54/12 31/57/12

v -0.119443 1.0397 -0.0242588
vt 1.72951 40.933
vn -0.405581 0 -0.914059
vt 1.95772 40.5393
vt 1.95772 40.933
f 32/58/13 31/59/12 30/60/12

v -0.119443 1.0297 -0.0242588
vt 1.72951 40.5393
f 31/59/12 32/58/13 33/61/13

vt 4.79574 40.933
v -0.112772 1.0297 -0.023138
vt 4.52943 40.5393
vn 0.22607 0 -0.974111
vt 4.79574 40.5393
f 32/62/13 34/63/14 33/64/13

v -0.112772 1.0397 -0.023138
vt 4.52943 40.933
f 34/63/14 32/62/13 35/65/14

vt -4.70249 0.955072
v -0.115368 1.0397 0.0527871
vt -4.54205 -2.07823
vt -4.43986 0.910944
f 32/66/1 36/67/1 35/68/1

v -0.121505 1.0397 0.0532064
vt -4.78366 -2.09474
f 32/66/1 37/69/1 36/67/1

vt -4.82546 0.76283
f 30/70/1 37/69/1 32/66/1

f 9/16/1 37/69/1 30/70/1

f 9/16/1 2/2/1 37/69/1

f 9/16/1 3/3/1 2/2/1

vt -4.97132 40.5393
vn -0.12872 0 0.991681
vt -4.47423 40.933
vn -0.0304291 0 0.999537
vt -4.97132 40.933
f 4/71/15 37/72/16 2/73/15

v -0.121505 1.0297 0.0532064
vt -4.47423 40.5393
f 37/72/16 4/71/15 38/74/16

vt 5.27661 -2.03075
vn 0 -1 -0
vt 5.1714 0.0915143
vt 4.78366 -2.09474
f 4/75/17 29/76/17 38/77/17

vt 5.28229 -2.04808
f 6/78/17 29/76/17 4/75/17

vt 5.30207 -2.05474
f 7/79/17 29/76/17 6/78/17

v -0.135332 1.0297 0.0529898
vt 5.32802 -2.08621
f 39/80/17 29/76/17 7/79/17

v -0.135748 1.0297 0.0528403
vt 5.34442 -2.08033
f 40/81/17 29/76/17 39/80/17

vt 5.43503 -0.060363
f 40/81/17 28/82/17 29/76/17

v -0.139393 1.0297 0.0515309
vt 5.48793 -2.02878
f 41/83/17 28/82/17 40/81/17

vt 5.69143 -0.113456
f 41/83/17 27/84/17 28/82/17

v -0.148784 1.0297 0.0389388
vt 5.85765 -1.53302
f 42/85/17 27/84/17 41/83/17

vt 6.12549 0.241858
f 42/85/17 26/86/17 27/84/17

v -0.156995 1.0297 0.0251355
vt 6.1809 -0.989586
f 43/87/17 26/86/17 42/85/17

vt 6.21187 0.246496
f 43/87/17 25/88/17 26/86/17

vt 6.22196 0.118763
f 43/87/17 24/89/17 25/88/17

vt 6.232 -0.00816362
f 43/87/17 23/90/17 24/89/17

vt 6.25188 -0.259626
f 23/90/17 43/87/17 22/91/17

vt 0.386805 40.5393
vn -0.950247 0 0.311499
vt -0.346597 40.933
vt -0.346597 40.5393
f 43/92/18 21/93/6 22/94/6

vt 0.386805 40.933
f 21/93/6 43/92/18 17/95/18

vt -1.67706 40.5393
vn -0.831664 0 0.555279
vt -2.30937 40.933
vt -2.30937 40.5393
f 42/96/19 17/97/18 43/98/18

vt -1.67706 40.933
f 17/97/18 42/96/19 15/99/19

vt -1.65448 40.5393
vn -0.595127 0 0.803631
vt -2.27292 40.933
vt -2.27292 40.5393
f 41/100/20 15/101/19 42/102/19

vt -1.65448 40.933
f 15/101/19 41/100/20 13/103/20

vt -4.47906 40.5393
vt -4.32656 40.933
vn -0.338041 0 0.941132
vt -4.47906 40.933
f 41/104/20 11/105/21 13/106/20

vt -4.32656 40.5393
f 11/105/21 41/104/20 40/107/21

vt -4.30915 40.933
f 40/107/21 10/108/21 11/105/21

vt -4.30915 40.5393
f 10/108/21 40/107/21 39/109/21

vt -4.95848 40.5393
vn 0.771521 0 0.636203
vt -4.99927 40.933
vt -4.99927 40.5393
f 7/110/22 10/111/22 39/112/22

vt -4.95848 40.933
f 10/111/22 7/110/22 8/113/22

vt 5.27121 -2.04524
f 5/114/17 6/78/17 4/75/17

vt 4.82546 0.76283
f 38/77/17 29/76/17 31/115/17

vt 4.70249 0.955072
f 38/77/17 31/115/17 33/116/17

v -0.115368 1.0297 0.0527871
vt 4.54205 -2.07823
f 38/77/17 33/116/17 44/117/17

vt 4.43986 0.910944
f 44/117/17 33/116/17 34/118/17

v -0.112889 1.0297 0.0483917
vt 4.44445 -1.90519
f 44/117/17 34/118/17 45/119/17

v -0.112501 1.0297 0.0454033
vt 4.42918 -1.78753
f 45/119/17 34/118/17 46/120/17

v -0.099854 1.0297 -0.0192884
vt 3.93126 0.759385
f 46/120/17 34/118/17 47/121/17

vt 4.51511 40.933
vt 3.98441 40.5393
vn 0.34393 0 -0.938995
vt 4.51511 40.5393
f 35/122/14 47/123/23 34/124/14

v -0.099854 1.0397 -0.0192884
vt 3.98441 40.933
f 47/123/23 35/122/14 48/125/23

v -0.112501 1.0397 0.0454033
vt -4.42918 -1.78753
vt -3.93126 0.759385
f 35/68/1 49/126/1 48/127/1

v -0.112889 1.0397 0.0483917
vt -4.44445 -1.90519
f 35/68/1 50/128/1 49/126/1

f 35/68/1 36/67/1 50/128/1

vt -4.04148 40.933
vn 0.533505 0 0.845797
vt -3.84281 40.5393
vn 0.948822 0 0.31581
vt -3.84281 40.933
f 36/129/24 45/130/25 50/131/25

vt -4.04148 40.5393
f 45/130/25 36/129/24 44/132/24

vt -4.67314 40.933
vt -4.91531 40.5393
vt -4.67314 40.5393
f 36/133/24 38/134/16 44/135/24

vt -4.91531 40.933
f 38/134/16 36/133/24 37/136/16

vt -2.34284 40.5393
vn 0.979723 0 0.200356
vt -2.46148 40.933
vt -2.46148 40.5393
f 46/137/26 50/138/25 45/139/25

vt -2.34284 40.933
f 50/138/25 46/137/26 49/140/26

v -0.107648 1.0297 0.0281614
vt -2.21546 40.5393
vn 0.933486 0 0.358613
vt -2.92065 40.933
vt -2.92065 40.5393
f 51/141/27 49/142/26 46/143/26

v -0.107648 1.0397 0.0281614
vt -2.21546 40.933
f 49/142/26 51/141/27 52/144/27

v -0.0998208 1.0297 0.012331
vt -2.1771 40.5393
vn 0.795964 0 0.605344
vt -2.87237 40.933
vt -2.87237 40.5393
f 53/145/28 52/146/27 51/147/27

v -0.0998208 1.0397 0.012331
vt -2.1771 40.933
f 52/146/27 53/145/28 54/148/28

vt -3.25313 40.5393
v -0.0933677 1.0397 0.00656046
vt -2.9123 40.933
vn 0.971223 0 0.238173
vt -3.25313 40.933
f 53/149/28 55/150/29 54/151/28

v -0.0933677 1.0297 0.00656046
vt -2.9123 40.5393
f 55/150/29 53/149/28 56/152/29

vt 3.92995 -0.485472
v -0.0965141 1.0297 -0.00179328
vt 3.79977 0.0706017
vt 3.67589 -0.258286
f 53/153/17 57/154/17 56/155/17

v -0.0976702 1.0297 -0.0111484
vt 3.84529 0.438912
f 53/153/17 58/156/17 57/154/17

v -0.0977787 1.0297 -0.01838
vt 3.84956 0.723623
f 53/153/17 59/157/17 58/156/17

f 53/153/17 47/121/17 59/157/17

vt 4.23813 -1.10872
f 51/158/17 47/121/17 53/153/17

f 46/120/17 47/121/17 51/158/17

vt 3.90588 40.933
vt 3.81669 40.5393
vn 0.832823 0 -0.553539
vt 3.90588 40.5393
f 48/159/23 59/160/30 47/161/23

v -0.0977787 1.0397 -0.01838
vt 3.81669 40.933
f 59/160/30 48/159/23 60/162/30

vt -3.92995 -0.485472
vt -3.84956 0.723623
f 48/127/1 54/163/1 60/164/1

vt -4.23813 -1.10872
f 48/127/1 52/165/1 54/163/1

f 48/127/1 49/126/1 52/165/1

v -0.0976702 1.0397 -0.0111484
vt -3.84529 0.438912
f 60/164/1 54/163/1 61/166/1

v -0.0965141 1.0397 -0.00179328
vt -3.79977 0.0706017
f 61/166/1 54/163/1 62/167/1

vt -3.67589 -0.258286
f 62/167/1 54/163/1 55/168/1

vt 1.05396 40.933
vt 1.4054 40.5393
vn 0.970959 0 -0.239245
vt 1.4054 40.933
f 55/169/29 57/170/31 62/171/31

vt 1.05396 40.5393
f 57/170/31 55/169/29 56/172/29

vt 0.907223 40.5393
vn 0.997622 0 -0.0689263
vt 0.53611 40.933
vt 0.53611 40.5393
f 58/173/32 62/174/31 57/175/31

vt 0.907223 40.933
f 62/174/31 58/173/32 61/176/32

vt 0.781292 40.5393
vt 0.49655 40.933
vt 0.49655 40.5393
f 59/177/30 61/178/32 58/179/32

vt 0.781292 40.933
f 61/178/32 59/177/30 60/180/30

