# Alias OBJ Model File
# Exported from SketchUp, (c) 2000-2012 Trimble Navigation Limited
# File units = meters

mtllib sitting_02.mtl

g Mesh1 Model

usemtl FrontColor
v 1.68145 0 -0.402199
vt 66.1989 15.8346
vn -1.6093e-17 1 1.45651e-17
v 1.03311 1.84496e-17 -2.38525
vt 40.6738 93.9073
v 0.402903 0 -1.81487
vt 15.8623 71.4514
f 1/1/1 2/2/1 3/3/1

v 2.31166 1.84496e-17 -0.972579
vt 91.0104 38.2905
f 2/2/1 1/1/1 4/4/1

v 1.68145 0.34 -0.402199
vt -59.7072 13.3858
vn -0.671035 -5.58266e-18 -0.741425
vt -93.1717 5.43912e-16
vt -59.7072 -1.8245e-16
f 5/5/2 4/6/2 1/7/2

v 2.31166 0.34 -0.972579
vt -93.1717 13.3858
f 4/6/2 5/5/2 6/8/2

vt -66.1989 15.8346
vn 0 -1 -0
v 1.03311 0.34 -2.38525
vt -40.6738 93.9073
vt -91.0104 38.2905
f 5/9/3 7/10/3 6/11/3

v 0.402903 0.34 -1.81487
vt -15.8623 71.4514
f 7/10/3 5/9/3 8/12/3

vt -32.6816 13.3858
vn 0.741425 1.10906e-15 -0.671035
vt 42.3317 -6.6219e-14
vt 42.3317 13.3858
f 5/13/4 3/14/4 8/15/4

vt -32.6816 -6.6219e-14
f 3/14/4 5/13/4 1/16/4

vt 93.1717 -4.08658e-14
vn 0.671035 -9.82528e-16 0.741425
vt 59.7072 13.3858
vt 59.7072 -4.15921e-14
f 2/17/5 8/18/5 3/19/5

vt 93.1717 13.3858
f 8/18/5 2/17/5 7/20/5

vt 32.6816 -1.53233e-13
vn -0.741425 -1.65243e-15 0.671035
vt -42.3317 13.3858
vt -42.3317 -1.53233e-13
f 4/21/6 7/22/6 2/23/6

vt 32.6816 13.3858
f 7/22/6 4/21/6 6/24/6

g Mesh2 Model

v 0.732829 1.23737e-16 -3.44874
vt -112.502 -7.21394e-13
vn -0.671035 8.93227e-15 -0.741425
v 1.34821 0.32 -4.00569
vt -145.18 12.5984
v 1.34821 5.53143e-17 -4.00569
vt -145.18 -7.24088e-13
f 9/25/7 10/26/7 11/27/7

v 0.732829 0.32 -3.44874
vt -112.502 12.5984
f 10/26/7 9/25/7 12/28/7

vt -53.0792 157.705
v 1.20926 0.32 -2.92232
vt -47.6088 115.052
vt -28.8516 135.777
f 10/29/3 13/30/3 12/31/3

v 1.82465 0.32 -3.47928
vt -71.8365 136.98
f 13/30/3 10/29/3 14/32/3

v 1.82465 1.54787e-17 -3.47928
vt 53.3553 -7.36835e-13
vn 0.741425 5.07953e-15 -0.671035
vt 81.3081 12.5984
vt 53.3553 12.5984
f 15/33/8 10/34/8 14/35/8

vt 81.3081 -7.35266e-13
f 10/34/8 15/33/8 11/36/8

v 1.20926 6.40079e-17 -2.92232
vt -112.502 -1.6359e-13
vn -0.671035 3.11327e-15 -0.741425
vt -145.18 -1.655e-13
f 16/37/9 14/26/9 15/38/9

f 14/26/9 16/37/9 13/28/9

