# Alias OBJ Model File
# Exported from SketchUp, (c) 2000-2012 Trimble Navigation Limited
# File units = meters

mtllib sitting_01.mtl

g Mesh1 Model

usemtl FrontColor
v 2.54042 3.4739e-17 -1.55537
vt -21.7134 1.51946e-15
vn 0.741425 -1.31705e-18 -0.671035
v 2.61423 0.33 -1.47381
vt -26.0441 12.9921
v 2.61423 3.4739e-17 -1.47381
vt -26.0441 1.51946e-15
f 1/1/1 2/2/1 3/3/1

v 2.54042 0.33 -1.55537
vt -21.7134 12.9921
f 2/2/1 1/1/1 4/4/1

vt -115.245 1.48969e-15
vn -0.671035 5.61927e-18 -0.741425
v 2.45886 0.33 -1.48155
vt -110.915 12.9921
vt -115.245 12.9921
f 1/5/2 5/6/2 4/7/2

v 2.45886 3.4739e-17 -1.48155
vt -110.915 1.48969e-15
f 5/6/2 1/5/2 6/8/2

vt -100.016 61.2349
vn 3.05581e-32 -1 3.37636e-32
v 2.53267 3.4739e-17 -1.4
vt -99.7115 55.118
vt -96.8055 58.3289
f 1/9/3 7/10/3 6/11/3

vt -102.922 58.024
f 7/10/3 1/9/3 3/12/3

vt 115.245 12.9921
vn 0.671035 7.40766e-19 0.741425
vt 110.915 1.34839e-15
vt 115.245 1.34839e-15
f 2/13/4 7/14/4 3/15/4

v 2.53267 0.33 -1.4
vt 110.915 12.9921
f 7/14/4 2/13/4 8/16/4

vn 5.79359e-16 -1 2.88724e-17
f 8/10/5 4/9/5 2/12/5

f 4/9/5 8/10/5 5/11/5

vt 21.7134 12.9921
vn -0.741425 -6.32103e-18 0.671035
vt 26.0441 6.66582e-16
vt 26.0441 12.9921
f 5/17/6 7/18/6 8/19/6

vt 21.7134 6.66582e-16
f 7/18/6 5/17/6 6/20/6

v 2.54257 0.33 -1.31455
vt -100.101 51.7537
vn 1.18168e-14 -1 -1.01417e-14
f 9/21/7 5/11/7 8/10/7

v 2.42179 0.33 -1.448
vt -95.346 57.0079
f 5/11/7 9/21/7 10/22/7

vt 28.8 12.9921
vn -0.741425 -1.55667e-14 0.671035
v 1.40278 0.4 -2.5739
vt -38.0723 15.748
f 9/23/8 11/24/8 10/17/8

v 2.54257 0.4 -1.31455
vt 28.8 15.748
f 11/24/8 9/23/8 12/25/8

v 2.57965 0.33 -1.3481
vn 0.671035 5.83879e-15 0.741425
vt 108.946 15.748
vt 108.946 12.9921
f 13/16/9 12/26/9 9/27/9

v 2.6612 0.33 -1.42191
f 12/26/9 13/16/9 14/13/9

vt -101.561 53.0747
vn 4.22215e-15 -1 4.05378e-15
vt -104.772 55.9807
f 13/28/10 2/12/10 14/29/10

f 2/12/10 13/28/10 8/10/10

f 9/21/7 8/10/7 13/28/7

vn 3.0204e-15 -1 -1.48922e-15
v 3.02893 0.33 -1.9975
vt -119.249 78.6418
f 2/12/11 15/30/11 14/29/11

f 4/9/11 15/30/11 2/12/11

v 3.11049 0.33 -2.07132
vt -122.46 81.5479
f 4/9/11 16/31/11 15/30/11

f 5/11/11 16/31/11 4/9/11

f 10/22/11 16/31/11 5/11/11

v 2.24934 0.33 -3.09731
vt -88.5567 121.941
f 10/22/11 17/32/11 16/31/11

v 2.21227 0.33 -3.06376
vt -87.0972 120.62
f 10/22/11 18/33/11 17/32/11

v 2.13071 0.33 -2.98994
vt -83.8863 117.714
f 10/22/11 19/34/11 18/33/11

v 2.0569 0.33 -3.0715
vt -80.9802 120.925
f 10/22/11 20/35/11 19/34/11

v 2.00992 0.33 -3.1234
vt -79.1309 122.968
f 10/22/11 21/36/11 20/35/11

v 1.6422 0.33 -2.54781
vt -64.6534 100.307
f 10/22/11 22/37/11 21/36/11

v 1.56064 0.33 -2.47399
vt -61.4425 97.4013
f 10/22/11 23/38/11 22/37/11

v 1.52357 0.33 -2.44044
vt -59.9831 96.0804
f 23/38/11 10/22/11 24/39/11

vt -30.9857 12.9921
f 10/17/8 11/24/8 24/40/8

v 1.40278 0.33 -2.5739
vt -38.0723 12.9921
f 24/40/8 11/24/8 25/41/8

vt -108.946 15.748
vn -0.671035 6.64467e-14 -0.741425
v 1.43985 0.33 -2.60745
vt -108.946 12.9921
f 11/42/12 26/6/12 25/43/12

v 2.12855 0.4 -3.23076
vt -147.485 15.748
f 27/44/12 26/6/12 11/42/12

vt -141.186 12.9921
f 27/44/12 21/45/12 26/6/12

v 2.09148 0.33 -3.19721
vt -145.517 12.9921
f 27/44/12 28/46/12 21/45/12

v 2.12855 0.33 -3.23076
vt -147.485 12.9921
f 28/46/12 27/44/12 29/47/12

vt 38.0723 15.748
vn 0.741425 -3.4891e-15 -0.671035
vt 30.9857 12.9921
vt 38.0723 12.9921
f 27/48/13 17/49/13 29/50/13

v 3.14756 0.33 -2.10487
f 27/48/13 30/4/13 17/49/13

v 3.26834 0.4 -1.97141
vt -28.8 15.748
f 31/51/13 30/4/13 27/48/13

v 3.26834 0.33 -1.97141
vt -28.8 12.9921
f 30/4/13 31/51/13 32/52/13

vt 147.485 15.748
v 3.23127 0.33 -1.93786
vt 145.517 12.9921
vt 147.485 12.9921
f 31/53/9 33/54/9 32/55/9

v 3.14972 0.33 -1.86405
vt 141.186 12.9921
f 33/54/9 31/53/9 34/56/9

f 34/56/9 31/53/9 14/13/9

f 14/13/9 31/53/9 12/26/9

vt 83.8013 127.195
vn -9.91007e-17 1 4.63129e-17
vt 100.101 51.7537
vt 128.675 77.6146
f 27/57/14 12/58/14 31/59/14

vt 55.2277 101.335
f 12/58/14 27/57/14 11/60/14

v 3.10274 0.33 -1.91595
vt -122.155 75.4309
vt -124.005 73.3876
f 14/29/11 35/61/11 34/62/11

f 35/61/11 14/29/11 15/30/11

vn -0.741425 1.64421e-16 0.671035
v 3.10274 3.4739e-17 -1.91595
vt 26.0441 2.45816e-14
f 15/17/15 36/63/15 35/19/15

v 3.02893 3.4739e-17 -1.9975
vt 21.7134 2.45816e-14
f 36/63/15 15/17/15 37/64/15

vn -0.671035 1.25161e-15 -0.741425
v 3.11049 3.4739e-17 -2.07132
vt -145.517 2.85444e-14
vt -141.186 2.85444e-14
f 15/45/16 38/65/16 37/66/16

f 38/65/16 15/45/16 16/46/16

vn 1.90558e-15 -1 -3.82377e-14
f 16/31/17 35/61/17 15/30/17

v 3.1843 0.33 -1.98976
vt -125.366 78.337
f 35/61/17 16/31/17 39/67/17

v 3.1843 3.4739e-17 -1.98976
vt -26.0441 -4.94458e-13
vn 0.741425 3.40735e-15 -0.671035
f 40/68/18 16/4/18 39/2/18

vt -21.7134 -4.94458e-13
f 16/4/18 40/68/18 38/69/18

f 36/61/3 38/31/3 40/67/3

f 38/31/3 36/61/3 37/30/3

vn 0.671035 -1.90679e-15 0.741425
vt 141.186 5.10282e-14
vt 145.517 5.10282e-14
f 39/54/19 36/70/19 40/71/19

f 36/70/19 39/54/19 35/56/19

vn 3.61392e-15 -1 4.60427e-15
f 39/67/20 34/62/20 35/61/20

vt -127.215 76.2937
f 34/62/20 39/67/20 33/72/20

vn -3.91943e-14 -1 -3.81061e-14
vt -128.675 77.6146
f 39/67/21 32/73/21 33/72/21

vt -123.92 82.8688
f 39/67/21 30/74/21 32/73/21

f 30/74/21 39/67/21 16/31/21

f 16/31/11 17/32/11 30/74/11

v 2.13845 0.33 -3.14531
vt -84.1911 123.831
vn 4.4077e-16 -1 5.68658e-15
vt -83.8013 127.195
f 41/75/22 29/76/22 17/32/22

vt -82.3418 125.874
f 29/76/22 41/75/22 28/77/22

vn -9.53754e-14 -1 -3.29967e-15
f 20/35/23 28/77/23 41/75/23

f 28/77/23 20/35/23 21/36/23

v 2.13845 3.4739e-17 -3.14531
vt -145.517 2.77303e-13
vn -0.671035 -7.81323e-15 -0.741425
f 42/78/24 20/45/24 41/46/24

v 2.0569 3.4739e-17 -3.0715
vt -141.186 2.77303e-13
f 20/45/24 42/78/24 43/79/24

v 2.13071 3.4739e-17 -2.98994
f 42/75/3 44/34/3 43/35/3

v 2.21227 3.4739e-17 -3.06376
f 44/34/3 42/75/3 45/33/3

vt 35.3164 1.64332e-13
vn 0.741425 -1.1199e-15 -0.671035
vt 30.9857 1.64332e-13
f 42/80/25 18/49/25 45/81/25

vt 35.3164 12.9921
f 18/49/25 42/80/25 41/82/25

vn -4.34288e-14 -1 -3.75929e-14
f 19/34/26 41/75/26 18/33/26

f 41/75/26 19/34/26 20/35/26

vt -35.3164 8.1489e-13
vn -0.741425 5.76207e-15 0.671035
vt -35.3164 12.9921
f 43/83/27 19/40/27 20/84/27

vt -30.9857 8.1489e-13
f 19/40/27 43/83/27 44/85/27

vt 141.186 1.88931e-13
vn 0.671035 6.05323e-15 0.741425
f 44/86/28 18/54/28 19/56/28

vt 145.517 1.88931e-13
f 18/54/28 44/86/28 45/87/28

f 41/75/22 17/32/22 18/33/22

v 1.52141 0.33 -2.68126
f 26/6/12 21/45/12 46/7/12

v 1.56838 0.33 -2.62936
vt -61.7474 103.518
vt -59.8981 105.562
f 21/36/11 47/88/11 46/89/11

f 47/88/11 21/36/11 22/37/11

vn -1.27907e-13 -1 -9.05899e-14
f 23/38/29 47/88/29 22/37/29

v 1.48683 0.33 -2.55555
vt -58.5365 100.612
f 47/88/29 23/38/29 48/90/29

v 1.48683 3.4739e-17 -2.55555
vt -35.3164 6.32659e-13
vn -0.741425 5.69168e-15 0.671035
f 49/91/30 23/40/30 48/84/30

v 1.56064 3.4739e-17 -2.47399
vt -30.9857 6.32659e-13
f 23/40/30 49/91/30 50/92/30

v 1.56838 3.4739e-17 -2.62936
f 51/88/3 50/38/3 49/90/3

v 1.6422 3.4739e-17 -2.54781
f 50/38/3 51/88/3 52/37/3

vt 35.3164 2.56371e-13
vn 0.741425 -2.2127e-15 -0.671035
vt 30.9857 2.56371e-13
f 51/93/31 22/49/31 52/94/31

f 22/49/31 51/93/31 47/82/31

vt -115.245 7.23996e-13
vn -0.671035 -2.04616e-14 -0.741425
f 51/95/32 48/6/32 47/7/32

vt -110.915 7.23996e-13
f 48/6/32 51/95/32 49/96/32

f 48/90/23 46/89/23 47/88/23

vt -56.6872 102.655
f 46/89/23 48/90/23 26/97/23

vn -1.14245e-13 -1 -1.49427e-13
f 24/39/33 26/97/33 48/90/33

vt -55.2277 101.335
f 26/97/33 24/39/33 25/98/33

f 24/39/33 48/90/33 23/38/33

vn 0.671035 1.63258e-14 0.741425
vt 110.915 5.07232e-13
vt 115.245 5.07232e-13
f 22/13/34 50/99/34 52/100/34

f 50/99/34 22/13/34 23/16/34

