# Alias OBJ Model File
# Exported from SketchUp, (c) 2000-2012 Trimble Navigation Limited
# File units = meters

mtllib sitting_03.mtl

g Mesh1 Model

usemtl FrontColor
v 1.59502 0 0.0536828
vt 62.7959 -2.1135
vn -1.04812e-17 1 8.17604e-18
v 0.215013 0 -2.02247
vt 8.46509 79.6246
v -0.059314 0 -1.77418
vt -2.3352 69.8497
f 1/1/1 2/2/1 3/3/1

v 0.402903 -1.16488e-15 -1.81487
vt 15.8623 71.4514
f 2/2/1 1/1/1 4/4/1

v 1.68145 -1.16488e-15 -0.402199
vt 66.1989 15.8346
f 4/4/1 1/1/1 5/5/1

v 1.86934 0 -0.1946
vt 73.5962 7.66143
f 5/5/1 1/1/1 6/6/1

v 1.59502 0.83 0.0536828
vt -45.1402 32.6772
vn -0.671035 0 -0.741425
vt -59.7072 0
vt -45.1402 0
f 7/7/2 6/8/2 1/9/2

v 1.86934 0.83 -0.1946
vt -59.7072 32.6772
f 6/8/2 7/7/2 8/10/2

vt -62.7959 -2.1135
vn 0 -1 -0
v 1.68145 0.83 -0.402199
vt -66.1989 15.8346
vt -73.5962 7.66143
f 7/11/3 9/12/3 8/13/3

v 0.402903 0.83 -1.81487
vt -15.8623 71.4514
f 7/11/3 10/14/3 9/12/3

v 0.215013 0.83 -2.02247
vt -8.46509 79.6246
f 7/11/3 11/15/3 10/14/3

v -0.059314 0.83 -1.77418
vt 2.3352 69.8497
f 11/15/3 7/11/3 12/16/3

vt -43.7053 32.6772
vn 0.741425 0 -0.671035
vt 53.3553 0
vt 53.3553 32.6772
f 7/17/4 3/18/4 12/19/4

vt -43.7053 0
f 3/18/4 7/17/4 1/20/4

vt 45.1402 0
vn 0.671035 0 0.741425
vt 59.7072 32.6772
vt 45.1402 32.6772
f 3/21/5 11/22/5 12/23/5

vt 59.7072 0
f 11/22/5 3/21/5 2/24/5

v 0.845225 0.83 -2.59285
vt 93.1717 32.6772
f 2/24/5 13/25/5 11/22/5

v 0.845225 0 -2.59285
vt 93.1717 0
f 13/25/5 2/24/5 14/26/5

vt 33.2766 102.081
f 4/4/1 14/27/1 2/2/1

v 1.03311 1.84496e-17 -2.38525
vt 40.6738 93.9073
f 14/27/1 4/4/1 15/28/1

v 0.402903 0.34 -1.81487
vt -59.7072 13.3858
vn -0.671035 -5.88027e-16 -0.741425
vt -93.1717 2.56186e-14
vt -59.7072 -2.09692e-14
f 16/29/6 15/30/6 4/31/6

v 1.03311 0.34 -2.38525
vt -93.1717 13.3858
f 15/30/6 16/29/6 17/32/6

vn -0.671035 -7.78243e-32 -0.741425
f 10/10/7 17/32/7 16/29/7

v 1.03311 0.83 -2.38525
vt -93.1717 32.6772
f 17/32/7 10/10/7 18/33/7

vt -33.2766 102.081
vt -40.6738 93.9073
f 10/14/3 13/34/3 18/35/3

f 13/34/3 10/14/3 11/15/3

vt -53.3553 32.6772
vn -0.741425 -6.31722e-16 0.671035
vt -42.3317 13.3858
vt -42.3317 32.6772
f 13/36/8 17/37/8 18/38/8

vt -42.3317 -5.81323e-14
f 17/37/8 13/36/8 15/39/8

vt -53.3553 -5.88587e-14
f 15/39/8 13/36/8 14/40/8

v 1.68145 0.34 -0.402199
vt 32.6816 13.3858
vn -0.741425 1.02495e-16 0.671035
f 19/41/9 10/38/9 16/37/9

vt 32.6816 32.6772
f 10/38/9 19/41/9 9/42/9

vt 59.7072 13.3858
vn 0.671035 1.16633e-15 0.741425
v 2.31166 0.83 -0.972579
f 19/43/10 20/25/10 9/22/10

v 2.31166 0.34 -0.972579
vt 93.1717 13.3858
f 20/25/10 19/43/10 21/44/10

vn 0.671035 -2.44291e-15 0.741425
v 2.31166 1.84496e-17 -0.972579
vt 93.1717 8.05646e-14
f 19/43/11 22/45/11 21/44/11

vt 59.7072 3.39769e-14
f 22/45/11 19/43/11 5/46/11

vn -0.741425 -1.51249e-15 0.671035
vt 32.6816 -1.36168e-13
f 16/37/12 5/47/12 19/41/12

vt -42.3317 -1.36168e-13
f 5/47/12 16/37/12 4/48/12

vt 91.0104 38.2905
f 5/5/1 6/6/1 22/49/1

v 2.49955 0 -0.76498
vt 98.4077 30.1173
f 22/49/1 6/6/1 23/50/1

vt -93.1717 0
f 8/10/2 23/51/2 6/8/2

v 2.49955 0.83 -0.76498
f 23/51/2 8/10/2 24/33/2

vt -91.0104 38.2905
vt -98.4077 30.1173
f 8/13/3 20/52/3 24/53/3

f 20/52/3 8/13/3 9/12/3

vn -0.741425 3.52589e-17 0.671035
vt 43.7053 3.28513e-15
vt 43.7053 32.6772
f 20/42/13 23/54/13 24/55/13

f 23/54/13 20/42/13 21/41/13

vt 32.6816 4.0115e-15
f 22/56/13 23/54/13 21/41/13

g Mesh2 Model

v 0.539386 0.66 -3.66247
vt -112.502 25.9843
v 1.29564 1.38764e-17 -4.34693
vt -152.66 5.46313e-16
v 0.539386 1.25514e-17 -3.66247
vt -112.502 4.94148e-16
f 25/57/2 26/58/2 27/59/2

v 1.29564 0.66 -4.34693
vt -152.66 25.9843
f 26/58/2 25/57/2 28/60/2

v 0.732829 0.66 -3.44874
vt 28.8516 135.777
vn 0 1 -0
vt 51.0095 171.139
vt 21.2357 144.192
f 29/61/14 28/62/14 25/63/14

v 1.34821 0.66 -4.00569
vt 53.0792 157.705
f 28/62/14 29/61/14 30/64/14

v 0.732829 0.32 -3.44874
vt 112.502 12.5984
vn 0.671035 5.322e-17 0.741425
vt 145.18 25.9843
vt 112.502 25.9843
f 31/65/15 30/66/15 29/67/15

v 1.34821 0.32 -4.00569
vt 145.18 12.5984
f 30/66/15 31/65/15 32/68/15

v 1.34821 5.53143e-17 -4.00569
vt -145.18 2.17773e-15
vt -112.502 12.5984
vt -145.18 12.5984
f 33/69/2 31/70/2 32/71/2

v 0.732829 5.15388e-17 -3.44874
vt -112.502 2.02909e-15
f 31/70/2 33/69/2 34/72/2

vt -28.8516 135.777
vn -8.01512e-18 -1 5.4054e-18
vt -51.0095 171.139
vt -53.0792 157.705
f 34/73/16 26/74/16 33/75/16

vt -21.2357 144.192
f 26/74/16 34/73/16 27/76/16

vt -81.3081 1.90514e-15
vn -0.741425 -1.10176e-18 0.671035
vt -92.6575 25.9843
vt -92.6575 3.70197e-16
f 34/77/17 25/78/17 27/79/17

vt -81.3081 12.5984
f 31/80/17 25/78/17 34/77/17

vt -81.3081 25.9843
f 25/78/17 31/80/17 29/81/17

v 1.20926 0.32 -2.92232
vt -53.3553 12.5984
vn -0.741425 3.41651e-16 0.671035
f 35/82/18 29/81/18 31/80/18

v 1.20926 0.66 -2.92232
vt -53.3553 25.9843
f 29/81/18 35/82/18 36/83/18

vn -0.671035 5.09454e-18 -0.741425
v 1.05357 0.66 -2.78141
vt -104.235 25.9843
f 35/70/19 37/84/19 36/57/19

v 1.05357 7.76093e-17 -2.78141
vt -104.235 2.78366e-15
f 35/70/19 38/85/19 37/84/19

v 1.20926 6.40079e-17 -2.92232
vt -112.502 2.24817e-15
f 38/85/19 35/70/19 39/86/19

vn -0.741425 -2.68891e-17 0.671035
vt -53.3553 -5.0509e-16
f 31/80/20 39/87/20 35/82/20

vt -81.3081 -9.95997e-16
f 39/87/20 31/80/20 34/88/20

v 0.383687 4.89108e-17 -3.52155
vt 92.6575 1.22003e-14
vn 0.741425 -9.85726e-17 -0.671035
vt 53.3553 25.9843
vt 53.3553 1.33302e-14
f 40/89/21 37/90/21 38/91/21

v 0.383687 0.66 -3.52155
vt 92.6575 25.9843
f 37/90/21 40/89/21 41/92/21

vt 104.235 -1.07125e-14
vn 0.671035 -1.36396e-16 0.741425
vt 104.235 25.9843
f 40/93/22 25/67/22 41/94/22

vt 112.502 -1.2144e-14
f 25/67/22 40/93/22 27/95/22

vn -1.53778e-15 -1 1.32425e-15
vt -41.4789 109.504
vt -15.1058 138.644
f 25/76/23 37/96/23 41/97/23

f 37/96/23 25/76/23 29/73/23

vt -47.6088 115.052
f 37/96/23 29/73/23 36/98/23

v 1.96552 1.38764e-17 -3.60678
vt -77.3826 141.999
f 33/75/16 26/74/16 42/99/16

vt 92.6575 1.83373e-15
vn 0.741425 -8.43321e-18 -0.671035
v 1.96552 0.66 -3.60678
vt 53.3553 1.83373e-15
f 26/100/24 43/90/24 42/101/24

f 43/90/24 26/100/24 28/92/24

vt 77.3826 141.999
f 28/62/14 30/64/14 43/102/14

v 1.82465 0.66 -3.47928
vt 71.8365 136.98
f 43/102/14 30/64/14 44/103/14

vn -0.741425 -5.322e-17 0.671035
v 1.82465 0.32 -3.47928
f 30/81/25 45/82/25 44/83/25

f 45/82/25 30/81/25 32/80/25

vt 53.3553 12.5984
vn 0.741425 6.3023e-18 -0.671035
vt 81.3081 1.26276e-15
vt 81.3081 12.5984
f 45/104/26 33/105/26 32/106/26

v 1.82465 2.14726e-17 -3.47928
vt 53.3553 -6.95859e-17
f 33/105/26 45/104/26 46/107/26

vt 145.18 9.29445e-16
vn 0.671035 1.57557e-18 0.741425
vt 152.66 25.9843
f 46/108/27 43/109/27 45/68/27

vt 152.66 6.30378e-16
f 43/109/27 46/108/27 42/110/27

vt -71.8365 136.98
f 33/75/16 42/99/16 46/111/16

f 45/68/27 43/109/27 44/66/27

