# Alias OBJ Model File
# Exported from SketchUp, (c) 2000-2012 Trimble Navigation Limited
# File units = meters

mtllib speaker_01.mtl

g Mesh1 Model

usemtl Color_M07
v 0.75 0 -0.89
vt 35.0394 0
vn 1 0 -0
v 0.75 0.46394 -0
vt 0 18.2654
v 0.75 0 -0
vt 0 0
f 1/1/1 2/2/1 3/3/1

v 0.75 1.13007 -0
vt 0 44.4908
f 2/2/1 1/1/1 4/4/1

v 0.75 1.53 -0
vt 0 60.2362
f 4/4/1 1/1/1 5/5/1

v 0.75 1.53 -0.89
vt 35.0394 60.2362
f 5/5/1 1/1/1 6/6/1

vt -29.5276 0
vn 0 0 -1
v 0 1.53 -0.89
vt -29.5276 60.2362
f 1/7/2 7/5/2 6/8/2

v 0 0 -0.89
f 7/5/2 1/7/2 8/3/2

v 0 0 -0
vn -1 0 -0
vt -35.0394 60.2362
vt -35.0394 0
f 9/3/3 7/9/3 8/10/3

v 0 0.46394 -0
f 10/2/3 7/9/3 9/3/3

v 0 1.13007 -0
f 11/4/3 7/9/3 10/2/3

v 0 1.53 -0
f 7/9/3 11/4/3 12/5/3

v 0.15232 1.13007 -0
vt 5.99686 44.4908
vn 0 0 1
f 13/11/4 12/5/4 11/4/4

v 0.159908 1.1877 -0
vt 6.29558 46.7598
f 12/5/4 13/11/4 14/12/4

v 0.182154 1.24141 -0
vt 7.1714 48.8742
f 12/5/4 14/12/4 15/13/4

v 0.217542 1.28752 -0
vt 8.56463 50.6899
f 12/5/4 15/13/4 16/14/4

v 0.26366 1.32291 -0
vt 10.3803 52.0832
f 12/5/4 16/14/4 17/15/4

v 0.317366 1.34516 -0
vt 12.4947 52.959
f 12/5/4 17/15/4 18/16/4

v 0.375 1.35275 -0
vt 14.7638 53.2577
f 12/5/4 18/16/4 19/17/4

v 0.375 1.53 -0
vt 14.7638 60.2362
f 12/5/4 19/17/4 20/18/4

vt 29.5276 60.2362
f 19/17/4 5/19/4 20/18/4

v 0.432634 1.34516 -0
vt 17.0328 52.959
f 21/20/4 5/19/4 19/17/4

v 0.48634 1.32291 -0
vt 19.1472 52.0832
f 22/21/4 5/19/4 21/20/4

v 0.532458 1.28752 -0
vt 20.9629 50.6899
f 23/22/4 5/19/4 22/21/4

v 0.567846 1.24141 -0
vt 22.3562 48.8742
f 24/23/4 5/19/4 23/22/4

v 0.590092 1.1877 -0
vt 23.232 46.7598
f 25/24/4 5/19/4 24/23/4

v 0.59768 1.13007 -0
vt 23.5307 44.4908
f 26/25/4 5/19/4 25/24/4

vt 29.5276 44.4908
f 5/19/4 26/25/4 4/26/4

v 0.590092 1.07243 -0
vt 23.232 42.2217
f 27/27/4 4/26/4 26/25/4

v 0.567846 1.01873 -0
vt 22.3562 40.1073
f 28/28/4 4/26/4 27/27/4

v 0.532458 0.972607 -0
vt 20.9629 38.2916
f 29/29/4 4/26/4 28/28/4

v 0.48634 0.937219 -0
vt 19.1472 36.8984
f 30/30/4 4/26/4 29/29/4

v 0.375 0.752937 -0
vt 14.7638 29.6432
f 31/31/4 4/26/4 30/30/4

v 0.441694 0.746167 -0
vt 17.3895 29.3767
f 32/32/4 4/26/4 31/31/4

v 0.512467 0.719289 -0
vt 20.1759 28.3185
f 33/33/4 4/26/4 32/32/4

v 0.573872 0.675009 -0
vt 22.5934 26.5751
f 34/34/4 4/26/4 33/33/4

v 0.621724 0.616345 -0
vt 24.4773 24.2655
f 35/35/4 4/26/4 34/34/4

v 0.652763 0.547295 -0
vt 25.6993 21.547
f 36/36/4 4/26/4 35/35/4

v 0.664872 0.472564 -0
vt 26.1761 18.6049
f 37/37/4 4/26/4 36/36/4

v 0.663996 0.46394 -0
vt 26.1416 18.2654
f 38/38/4 4/26/4 37/37/4

vt 29.5276 18.2654
f 4/26/4 38/38/4 2/39/4

v 0.657227 0.397246 -0
vt 25.8751 15.6396
f 39/40/4 2/39/4 38/38/4

v 0.630348 0.326473 -0
vt 24.8169 12.8533
f 40/41/4 2/39/4 39/40/4

v 0.586068 0.265068 -0
vt 23.0736 10.4358
f 41/42/4 2/39/4 40/41/4

v 0.375 0 -0
vt 14.7638 0
f 42/43/4 2/39/4 41/42/4

vt 29.5276 0
f 2/39/4 42/43/4 3/44/4

v 0.527405 0.217216 -0
vt 20.764 8.55182
f 42/43/4 41/42/4 43/45/4

v 0.458355 0.186178 -0
vt 18.0455 7.32984
f 42/43/4 43/45/4 44/46/4

v 0.383624 0.174069 -0
vt 15.1033 6.8531
f 42/43/4 44/46/4 45/47/4

v 0.375 0.174944 -0
vt 14.7638 6.88756
f 46/48/4 42/43/4 45/47/4

f 46/48/4 9/3/4 42/43/4

v 0.308306 0.181714 -0
vt 12.138 7.15408
f 9/3/4 46/48/4 47/49/4

v 0.237533 0.208592 -0
vt 9.35168 8.21229
f 9/3/4 47/49/4 48/50/4

v 0.176128 0.252872 -0
vt 6.93417 9.95559
f 9/3/4 48/50/4 49/51/4

f 9/3/4 49/51/4 10/2/4

v 0.128276 0.311536 -0
vt 5.05023 12.2652
f 10/2/4 49/51/4 50/52/4

v 0.0972375 0.380586 -0
vt 3.82825 14.9837
f 10/2/4 50/52/4 51/53/4

v 0.0851283 0.455316 -0
vt 3.35151 17.9258
f 10/2/4 51/53/4 52/54/4

v 0.0860036 0.46394 -0
vt 3.38597 18.2654
f 10/2/4 52/54/4 53/55/4

v 0.0927733 0.530635 -0
vt 3.65249 20.8911
f 54/56/4 10/2/4 53/55/4

f 10/2/4 54/56/4 11/4/4

v 0.119652 0.601408 -0
vt 4.7107 23.6775
f 11/4/4 54/56/4 55/57/4

v 0.163932 0.662813 -0
vt 6.454 26.095
f 11/4/4 55/57/4 56/58/4

v 0.222595 0.710665 -0
vt 8.7636 27.9789
f 11/4/4 56/58/4 57/59/4

v 0.291645 0.741703 -0
vt 11.4821 29.2009
f 11/4/4 57/59/4 58/60/4

v 0.366376 0.753812 -0
vt 14.4243 29.6776
f 11/4/4 58/60/4 59/61/4

v 0.26366 0.937219 -0
vt 10.3803 36.8984
f 11/4/4 59/61/4 60/62/4

v 0.317366 0.914974 -0
vt 12.4947 36.0226
f 60/62/4 59/61/4 61/63/4

v 0.375 0.907386 -0
vt 14.7638 35.7239
f 61/63/4 59/61/4 62/64/4

f 62/64/4 59/61/4 31/31/4

v 0.432634 0.914974 -0
vt 17.0328 36.0226
f 31/31/4 63/65/4 62/64/4

f 31/31/4 30/30/4 63/65/4

v 0.217542 0.972607 -0
vt 8.56463 38.2916
f 11/4/4 60/62/4 64/66/4

v 0.182154 1.01873 -0
vt 7.1714 40.1073
f 11/4/4 64/66/4 65/67/4

v 0.159908 1.07243 -0
vt 6.29558 42.2217
f 11/4/4 65/67/4 66/68/4

f 11/4/4 66/68/4 13/11/4

vt 29.5276 35.0394
vn 0 1 -0
f 6/69/5 20/43/5 5/44/5

vt 0 35.0394
f 7/70/5 20/43/5 6/69/5

f 20/43/5 7/70/5 12/3/5

g Mesh2 Model

v 3.37498 1.53 -0.889467
vt -35.0184 60.2362
v 3.37498 1.13007 0.000533383
vt 0.0209993 44.4908
v 3.37498 1.53 0.000533383
vt 0.0209993 60.2362
f 67/71/3 68/72/3 69/73/3

v 3.37498 0.46394 0.000533383
vt 0.0209993 18.2654
f 68/72/3 67/71/3 70/74/3

v 3.37498 0 0.000533383
vt 0.0209993 0
f 70/74/3 67/71/3 71/75/3

v 3.37498 0 -0.889467
vt -35.0184 0
f 71/75/3 67/71/3 72/76/3

vt -132.873 60.2362
v 4.12498 0 -0.889467
vt -162.401 0
vt -132.873 0
f 67/77/2 73/78/2 72/79/2

v 4.12498 1.53 -0.889467
vt -162.401 60.2362
f 73/78/2 67/77/2 74/80/2

vt 132.873 35.0184
v 3.74998 1.53 0.000533383
vt 147.637 -0.0209993
vt 162.401 35.0184
f 67/81/5 75/82/5 74/83/5

vt 132.873 -0.0209993
f 75/82/5 67/81/5 69/84/5

vt 132.873 60.2362
vn -3.66381e-19 3.92118e-19 1
v 3.74998 1.35275 0.000533383
vt 147.637 53.2577
vt 147.637 60.2362
f 69/85/6 76/86/6 75/87/6

v 3.69234 1.34516 0.000533383
vt 145.368 52.959
f 69/85/6 77/88/6 76/86/6

v 3.63864 1.32291 0.000533383
vt 143.253 52.0832
f 69/85/6 78/89/6 77/88/6

v 3.59252 1.28752 0.000533383
vt 141.438 50.6899
f 69/85/6 79/90/6 78/89/6

v 3.55713 1.24141 0.000533383
vt 140.044 48.8742
f 69/85/6 80/91/6 79/90/6

v 3.53488 1.1877 0.000533383
vt 139.169 46.7598
f 69/85/6 81/92/6 80/91/6

v 3.5273 1.13007 0.000533383
vt 138.87 44.4908
f 69/85/6 82/93/6 81/92/6

vt 132.873 44.4908
f 82/93/6 69/85/6 68/94/6

vn -1.54152e-18 -2.01786e-18 1
v 3.53488 1.07243 0.000533383
vt 139.169 42.2217
f 68/94/7 83/95/7 82/93/7

v 3.55713 1.01873 0.000533383
vt 140.044 40.1073
f 68/94/7 84/96/7 83/95/7

v 3.59252 0.972607 0.000533383
vt 141.438 38.2916
f 68/94/7 85/97/7 84/96/7

v 3.63864 0.937219 0.000533383
vt 143.253 36.8984
f 68/94/7 86/98/7 85/97/7

v 3.74135 0.753812 0.000533383
vt 147.297 29.6776
f 68/94/7 87/99/7 86/98/7

v 3.66662 0.741703 0.000533383
vt 144.355 29.2009
f 68/94/7 88/100/7 87/99/7

v 3.59757 0.710665 0.000533383
vt 141.637 27.9789
f 68/94/7 89/101/7 88/100/7

v 3.53891 0.662813 0.000533383
vt 139.327 26.095
f 68/94/7 90/102/7 89/101/7

v 3.49463 0.601408 0.000533383
vt 137.584 23.6775
f 68/94/7 91/103/7 90/102/7

v 3.46775 0.530635 0.000533383
vt 136.526 20.8911
f 68/94/7 92/104/7 91/103/7

vt 132.873 18.2654
f 70/105/7 92/104/7 68/94/7

v 3.46098 0.46394 0.000533383
vt 136.259 18.2654
f 92/104/7 70/105/7 93/106/7

v 3.4601 0.455316 0.000533383
vt 136.225 17.9258
f 70/105/4 94/107/4 93/106/4

v 3.47221 0.380586 0.000533383
vt 136.701 14.9837
f 70/105/4 95/108/4 94/107/4

v 3.50325 0.311536 0.000533383
vt 137.923 12.2652
f 70/105/4 96/109/4 95/108/4

v 3.5511 0.252872 0.000533383
vt 139.807 9.95559
f 70/105/4 97/110/4 96/109/4

vt 132.873 0
f 71/111/4 97/110/4 70/105/4

v 3.61251 0.208592 0.000533383
vt 142.225 8.21229
f 71/111/4 98/112/4 97/110/4

v 3.68328 0.181714 0.000533383
vt 145.011 7.15408
f 71/111/4 99/113/4 98/112/4

v 3.74998 0.174944 0.000533383
vt 147.637 6.88756
f 71/111/4 100/114/4 99/113/4

v 3.74998 0 0.000533383
vt 147.637 0
f 100/114/4 71/111/4 101/115/4

v 3.7586 0.174069 0.000533383
vt 147.976 6.8531
f 100/114/4 101/115/4 102/116/4

v 3.83333 0.186178 0.000533383
vt 150.919 7.32984
f 101/115/4 103/117/4 102/116/4

v 3.90238 0.217216 0.000533383
vt 153.637 8.55182
f 101/115/4 104/118/4 103/117/4

v 3.96104 0.265068 0.000533383
vt 155.947 10.4358
f 101/115/4 105/119/4 104/118/4

v 4.12498 0.46394 0.000533383
vt 162.401 18.2654
f 101/115/4 106/120/4 105/119/4

v 4.12498 0 0.000533383
vt 162.401 0
f 106/120/4 101/115/4 107/121/4

vt 35.0184 0
vt -0.0209993 18.2654
vt -0.0209993 0
f 73/122/1 106/123/1 107/124/1

v 4.12498 1.13007 0.000533383
vt -0.0209993 44.4908
f 106/123/1 73/122/1 108/125/1

v 4.12498 1.53 0.000533383
vt -0.0209993 60.2362
f 108/125/1 73/122/1 109/126/1

vt 35.0184 60.2362
f 109/126/1 73/122/1 74/127/1

vt 162.401 -0.0209993
f 74/83/5 75/82/5 109/128/5

vn 3.26794e-18 4.91374e-18 1
vt 162.401 60.2362
f 76/86/8 109/129/8 75/87/8

v 3.80761 1.34516 0.000533383
vt 149.906 52.959
f 110/130/8 109/129/8 76/86/8

v 3.86132 1.32291 0.000533383
vt 152.02 52.0832
f 111/131/8 109/129/8 110/130/8

v 3.90743 1.28752 0.000533383
vt 153.836 50.6899
f 112/132/8 109/129/8 111/131/8

v 3.94282 1.24141 0.000533383
vt 155.229 48.8742
f 113/133/8 109/129/8 112/132/8

v 3.96507 1.1877 0.000533383
vt 156.105 46.7598
f 114/134/8 109/129/8 113/133/8

v 3.97266 1.13007 0.000533383
vt 156.404 44.4908
f 115/135/8 109/129/8 114/134/8

vt 162.401 44.4908
f 109/129/8 115/135/8 108/136/8

v 3.96507 1.07243 0.000533383
vt 156.105 42.2217
vn -1.48446e-18 -3.91362e-18 1
f 116/137/9 108/136/9 115/135/9

v 3.94282 1.01873 0.000533383
vt 155.229 40.1073
f 117/138/9 108/136/9 116/137/9

v 3.90743 0.972607 0.000533383
vt 153.836 38.2916
f 118/139/9 108/136/9 117/138/9

v 3.86132 0.937219 0.000533383
vt 152.02 36.8984
f 119/140/9 108/136/9 118/139/9

v 3.74998 0.752937 0.000533383
vt 147.637 29.6432
f 120/141/9 108/136/9 119/140/9

v 3.81667 0.746167 0.000533383
vt 150.263 29.3767
f 121/142/9 108/136/9 120/141/9

v 3.88744 0.719289 0.000533383
vt 153.049 28.3185
f 122/143/9 108/136/9 121/142/9

v 3.94885 0.675009 0.000533383
vt 155.466 26.5751
f 123/144/9 108/136/9 122/143/9

v 3.9967 0.616345 0.000533383
vt 157.35 24.2655
f 124/145/9 108/136/9 123/144/9

v 4.02774 0.547295 0.000533383
vt 158.572 21.547
f 125/146/9 108/136/9 124/145/9

v 4.03985 0.472564 0.000533383
vt 159.049 18.6049
f 126/147/9 108/136/9 125/146/9

v 4.03897 0.46394 0.000533383
vt 159.015 18.2654
f 127/148/9 108/136/9 126/147/9

f 108/136/9 127/148/9 106/120/9

v 4.0322 0.397246 0.000533383
vt 158.748 15.6396
f 128/149/4 106/120/4 127/148/4

v 4.00532 0.326473 0.000533383
vt 157.69 12.8533
f 129/150/4 106/120/4 128/149/4

f 105/119/4 106/120/4 129/150/4

v 3.80761 0.914974 0.000533383
vt 149.906 36.0226
f 120/141/9 119/140/9 130/151/9

v 3.74998 0.907386 0.000533383
vt 147.637 35.7239
f 120/141/9 130/151/9 131/152/9

f 131/152/7 87/99/7 120/141/7

v 3.69234 0.914974 0.000533383
vt 145.368 36.0226
f 132/153/7 87/99/7 131/152/7

f 86/98/7 87/99/7 132/153/7

g Mesh3 Model

usemtl FrontColor
v 1.07812 0 -0.445
vt 17.5197 0
v 1.07812 0.8 -0.11085
vt 4.36417 31.4961
v 1.07812 0 -0.11085
vt 4.36417 0
f 133/154/1 134/155/1 135/156/1

v 1.07812 0.8 -0.445
vt 17.5197 31.4961
f 134/155/1 133/154/1 136/157/1

v 1.07812 0 -0.905
vt 35.6299 0
f 137/158/1 136/157/1 133/154/1

v 1.07812 0.8 -0.5025
vt 19.7835 31.4961
f 136/157/1 137/158/1 138/159/1

v 1.07812 0.78 -0.56
vt 22.0472 30.7087
f 138/159/1 137/158/1 139/160/1

v 1.07812 0.78 -0.905
vt 35.6299 30.7087
f 139/160/1 137/158/1 140/161/1

vt 42.4457 0
v 3.04685 0.78 -0.905
vt 119.955 30.7087
vt 42.4457 30.7087
f 137/162/4 141/163/4 140/164/4

v 3.04685 0 -0.905
vt 119.955 0
f 141/163/4 137/162/4 142/165/4

v 3.04685 0 -0.445
vt -17.5197 0
vt -35.6299 30.7087
vt -35.6299 0
f 143/166/3 141/167/3 142/168/3

v 3.04685 0.78 -0.445
vt -17.5197 30.7087
f 141/167/3 143/166/3 144/169/3

v 3.04685 0.8 -0.445
vt -17.5197 31.4961
f 143/166/3 145/170/3 144/169/3

v 3.04685 0 -0.11085
vt -4.36417 0
f 146/171/3 145/170/3 143/166/3

v 3.04685 0.8 -0.11085
vt -4.36417 31.4961
f 145/170/3 146/171/3 147/172/3

vt -119.955 0
vt -42.4457 31.4961
vt -119.955 31.4961
f 146/173/2 134/174/2 147/175/2

vt -42.4457 0
f 134/174/2 146/173/2 135/176/2

v 2.06249 0.8 -0.11085
vt -81.2003 31.4961
f 147/175/2 134/174/2 148/177/2

vt -42.4457 4.36417
vn 0 -1 -0
v 1.43239 0.8 -0.227484
vt -56.3932 8.95608
vt -81.2003 4.36417
f 134/178/10 149/179/10 148/180/10

v 1.11281 0.8 -0.445
vt -43.8114 17.5197
f 134/178/10 150/181/10 149/179/10

vt -42.4457 17.5197
f 150/181/10 134/178/10 136/182/10

v 1.43239 0.8 -0.397484
vt -56.3932 15.649
f 149/179/10 150/181/10 151/183/10

v 1.54138 0.8 -0.445
vt -60.6844 17.5197
f 152/184/10 151/183/10 150/181/10

v 1.45239 0.8 -0.397484
vt -57.1806 15.649
f 151/183/10 152/184/10 153/185/10

v 1.90239 0.8 -0.397484
vt -74.8971 15.649
f 153/185/10 152/184/10 154/186/10

v 1.67292 0.8 -0.445
vt -65.8629 17.5197
f 154/186/10 152/184/10 155/187/10

v 1.83815 0.8 -0.445
vt -72.3683 17.5197
f 154/186/10 155/187/10 156/188/10

v 2.06249 0.8 -0.445
vt -81.2003 17.5197
f 154/186/10 156/188/10 157/189/10

v 1.92239 0.8 -0.397484
vt -75.6845 15.649
f 154/186/10 157/189/10 158/190/10

v 1.92239 0.8 -0.227484
vt -75.6845 8.95608
f 158/190/10 157/189/10 159/191/10

f 148/180/10 159/191/10 157/189/10

f 148/180/10 149/179/10 159/191/10

vt -119.955 17.5197
f 145/192/10 148/180/10 157/189/10

vt -119.955 4.36417
f 148/180/10 145/192/10 147/193/10

v 2.97398 0.78 -0.72416
vt -117.086 28.5102
vt -119.955 35.6299
f 144/192/10 160/194/10 141/195/10

v 2.83382 0.78 -0.516903
vt -111.568 20.3505
f 144/192/10 161/196/10 160/194/10

v 2.18468 0.78 -0.670367
vt -86.0109 26.3924
f 144/192/10 162/197/10 161/196/10

v 2.17468 0.78 -0.670367
vt -85.6172 26.3924
f 144/192/10 163/198/10 162/197/10

v 2.06249 0.78 -0.445
f 164/189/10 163/198/10 144/192/10

v 2.17468 0.78 -0.850367
vt -85.6172 33.479
f 163/198/10 164/189/10 165/199/10

v 2.06249 0.78 -0.5025
vt -81.2003 19.7835
f 166/200/10 165/199/10 164/189/10

v 2.06249 0.78 -0.56
vt -81.2003 22.0472
f 167/201/10 165/199/10 166/200/10

v 2.06249 0.78 -0.905
vt -81.2003 35.6299
f 168/202/10 165/199/10 167/201/10

f 165/199/10 168/202/10 141/195/10

vt 81.2003 30.7087
f 140/164/4 141/163/4 168/203/4

v 1.8164 0.78 -0.905
vt 71.5117 30.7087
f 140/164/4 168/203/4 169/204/4

v 1.8164 0.78 -0.8525
vt -71.5117 33.563
vt -71.5117 35.6299
f 168/202/10 170/205/10 169/206/10

v 1.84745 0.78 -0.848411
vt -72.7344 33.402
f 170/205/10 168/202/10 171/207/10

v 1.8764 0.78 -0.836423
vt -73.8739 32.93
f 171/207/10 168/202/10 172/208/10

v 1.90125 0.78 -0.817353
vt -74.8523 32.1792
f 172/208/10 168/202/10 173/209/10

v 1.92032 0.78 -0.7925
vt -75.6031 31.2008
f 173/209/10 168/202/10 174/210/10

v 1.93231 0.78 -0.763558
vt -76.0751 30.0613
f 174/210/10 168/202/10 175/211/10

v 1.9364 0.78 -0.7325
vt -76.2361 28.8386
f 175/211/10 168/202/10 176/212/10

f 167/201/10 176/212/10 168/202/10

v 1.93231 0.78 -0.701442
vt -76.0751 27.6158
f 167/201/10 177/213/10 176/212/10

v 1.92032 0.78 -0.6725
vt -75.6031 26.4764
f 167/201/10 178/214/10 177/213/10

v 1.90125 0.78 -0.647647
vt -74.8523 25.4979
f 167/201/10 179/215/10 178/214/10

v 1.8764 0.78 -0.628577
vt -73.8739 24.7471
f 167/201/10 180/216/10 179/215/10

v 1.84745 0.78 -0.616589
vt -72.7344 24.2752
f 167/201/10 181/217/10 180/216/10

v 1.8164 0.78 -0.56
vt -71.5117 22.0472
f 182/218/10 181/217/10 167/201/10

v 1.8164 0.78 -0.6125
vt -71.5117 24.1142
f 181/217/10 182/218/10 183/219/10

vn 8.94523e-32 -1 -4.57154e-31
v 1.78534 0.78 -0.616589
vt -70.2889 24.2752
f 182/218/11 184/220/11 183/219/11

v 1.7564 0.78 -0.628577
vt -69.1495 24.7471
f 182/218/11 185/221/11 184/220/11

v 1.73154 0.78 -0.647647
vt -68.171 25.4979
f 182/218/11 186/222/11 185/221/11

v 1.44421 0.78 -0.7325
vt -56.8588 28.8386
f 182/218/11 187/223/11 186/222/11

v 1.44012 0.78 -0.701442
vt -56.6978 27.6158
f 182/218/11 188/224/11 187/223/11

v 1.42814 0.78 -0.6725
vt -56.2258 26.4764
f 182/218/11 189/225/11 188/224/11

v 1.40907 0.78 -0.647647
vt -55.475 25.4979
f 182/218/11 190/226/11 189/225/11

v 1.38421 0.78 -0.628577
vt -54.4966 24.7471
f 182/218/11 191/227/11 190/226/11

v 1.35527 0.78 -0.616589
vt -53.3572 24.2752
f 182/218/11 192/228/11 191/227/11

v 1.32421 0.78 -0.56
vt -52.1344 22.0472
f 193/229/11 192/228/11 182/218/11

v 1.32421 0.78 -0.6125
vt -52.1344 24.1142
f 192/228/11 193/229/11 194/230/11

v 1.29316 0.78 -0.616589
vt -50.9116 24.2752
f 193/229/10 195/231/10 194/230/10

v 1.26421 0.78 -0.628577
vt -49.7722 24.7471
f 193/229/10 196/232/10 195/231/10

v 1.23936 0.78 -0.647647
vt -48.7937 25.4979
f 193/229/10 197/233/10 196/232/10

vt -42.4457 22.0472
f 139/234/10 197/233/10 193/229/10

v 1.22029 0.78 -0.6725
vt -48.0429 26.4764
f 197/233/10 139/234/10 198/235/10

v 1.2083 0.78 -0.701442
vt -47.571 27.6158
f 198/235/10 139/234/10 199/236/10

v 1.20421 0.78 -0.7325
vt -47.41 28.8386
f 199/236/10 139/234/10 200/237/10

v 1.2083 0.78 -0.763558
vt -47.571 30.0613
f 139/234/10 201/238/10 200/237/10

v 1.22029 0.78 -0.7925
vt -48.0429 31.2008
f 139/234/10 202/239/10 201/238/10

vt -42.4457 35.6299
f 140/240/10 202/239/10 139/234/10

v 1.23936 0.78 -0.817353
vt -48.7937 32.1792
f 202/239/10 140/240/10 203/241/10

v 1.32421 0.78 -0.905
vt -52.1344 35.6299
f 203/241/10 140/240/10 204/242/10

vt 52.1344 30.7087
f 140/164/4 169/204/4 204/243/4

v 1.32421 0.78 -0.8525
vt -52.1344 33.563
f 169/206/11 205/244/11 204/242/11

v 1.35527 0.78 -0.848411
vt -53.3572 33.402
f 205/244/11 169/206/11 206/245/11

v 1.38421 0.78 -0.836423
vt -54.4966 32.93
f 206/245/11 169/206/11 207/246/11

v 1.40907 0.78 -0.817353
vt -55.475 32.1792
f 207/246/11 169/206/11 208/247/11

v 1.42814 0.78 -0.7925
vt -56.2258 31.2008
f 208/247/11 169/206/11 209/248/11

v 1.44012 0.78 -0.763558
vt -56.6978 30.0613
f 209/248/11 169/206/11 210/249/11

f 210/249/11 169/206/11 187/223/11

v 1.73154 0.78 -0.817353
vt -68.171 32.1792
f 187/223/11 169/206/11 211/250/11

v 1.7564 0.78 -0.836423
vt -69.1495 32.93
f 211/250/11 169/206/11 212/251/11

v 1.78534 0.78 -0.848411
vt -70.2889 33.402
f 212/251/11 169/206/11 213/252/11

f 213/252/11 169/206/11 170/205/11

v 1.71247 0.78 -0.7925
vt -67.4202 31.2008
f 187/223/11 211/250/11 214/253/11

v 1.70049 0.78 -0.763558
vt -66.9482 30.0613
f 187/223/11 214/253/11 215/254/11

v 1.6964 0.78 -0.7325
vt -66.7873 28.8386
f 187/223/11 215/254/11 216/255/11

v 1.70049 0.78 -0.701442
vt -66.9482 27.6158
f 217/256/11 187/223/11 216/255/11

v 1.71247 0.78 -0.6725
vt -67.4202 26.4764
f 218/257/11 187/223/11 217/256/11

f 186/222/11 187/223/11 218/257/11

v 1.29316 0.78 -0.848411
vt -50.9116 33.402
f 219/258/10 204/242/10 205/244/10

v 1.26421 0.78 -0.836423
vt -49.7722 32.93
f 220/259/10 204/242/10 219/258/10

f 203/241/10 204/242/10 220/259/10

v 2.18468 0.78 -0.850367
vt -86.0109 33.479
f 165/199/10 141/195/10 221/260/10

v 2.45468 0.78 -0.850367
vt -96.6408 33.479
f 221/260/10 141/195/10 222/261/10

v 2.45468 0.78 -0.670367
vt -96.6408 26.3924
f 222/261/10 141/195/10 223/262/10

v 2.86124 0.78 -0.807158
vt -112.647 31.7779
f 223/262/10 141/195/10 224/263/10

f 224/263/10 141/195/10 160/194/10

v 2.71303 0.78 -0.605829
vt -106.812 23.8515
f 223/262/10 224/263/10 225/264/10

f 161/196/10 223/262/10 225/264/10

v 2.44468 0.78 -0.670367
vt -96.2471 26.3924
f 161/196/10 226/265/10 223/262/10

f 161/196/10 162/197/10 226/265/10

v 2.17468 0.78 -0.680367
vt -85.6172 26.7861
f 163/198/10 165/199/10 227/266/10

v 1.07812 0.8 -0.56
vt 22.0472 31.4961
f 228/267/1 138/159/1 139/160/1

