# Alias OBJ Model File
# Exported from SketchUp, (c) 2000-2012 Trimble Navigation Limited
# File units = meters

mtllib speaker_04.mtl

g Mesh1 Model

usemtl FrontColor
v 1.90239 0.8 -0.397484
vt 74.8971 -0.748567
vn 0 -0.904819 0.425797
v 1.45239 0.871484 -0.245581
vt 57.1806 5.861
v 1.45239 0.8 -0.397484
vt 57.1806 -0.748567
f 1/1/1 2/2/1 3/3/1

v 1.90239 0.871484 -0.245581
vt 74.8971 5.861
f 2/2/1 1/1/1 4/4/1

g Mesh2 Model

v 2.33468 0.81 -0.840367
vt -91.9164 33.0853
vn 0 -1 -0
v 2.18468 0.81 -0.680367
vt -86.0109 26.7861
v 2.18468 0.81 -0.840367
vt -86.0109 33.0853
f 5/5/2 6/6/2 7/7/2

v 2.33468 0.81 -0.680367
vt -91.9164 26.7861
f 6/6/2 5/5/2 8/8/2

g Mesh3 Model

v 2.44468 0.81 -0.840367
vt -96.2471 33.0853
v 2.34468 0.81 -0.680367
vt -92.3101 26.7861
v 2.34468 0.81 -0.840367
vt -92.3101 33.0853
f 9/9/2 10/10/2 11/11/2

v 2.44468 0.81 -0.680367
vt -96.2471 26.7861
f 10/10/2 9/9/2 12/12/2

